<?xml version="1.0" encoding="UTF-8"?>
<svg id="_レイヤー_2" data-name="レイヤー 2" xmlns="http://www.w3.org/2000/svg" xmlns:xlink="http://www.w3.org/1999/xlink" viewBox="0 0 310.19 456.7">
  <defs>
    <style>
      .cls-1 {
        filter: url(#drop-shadow-1);
      }

      .cls-2 {
        filter: url(#drop-shadow-3);
      }

      .cls-3 {
        filter: url(#drop-shadow-2);
      }

      .cls-4 {
        filter: url(#drop-shadow-9);
      }

      .cls-5 {
        filter: url(#drop-shadow-6);
      }

      .cls-6 {
        filter: url(#drop-shadow-7);
      }

      .cls-7 {
        filter: url(#drop-shadow-8);
      }

      .cls-8 {
        filter: url(#drop-shadow-5);
      }

      .cls-9 {
        filter: url(#drop-shadow-4);
      }

      .cls-10 {
        fill: #e71e29;
      }

      .cls-11 {
        fill: #231815;
      }

      .cls-12 {
        fill: #fff;
      }

      .cls-13 {
        fill: #efeb58;
      }
    </style>
    <filter id="drop-shadow-1" x="176.45" y="0" width="97.2" height="78.99" filterUnits="userSpaceOnUse">
      <feOffset dx=".71" dy=".71"/>
      <feGaussianBlur result="blur" stdDeviation=".06"/>
      <feFlood flood-color="#231815" flood-opacity=".5"/>
      <feComposite in2="blur" operator="in"/>
      <feComposite in="SourceGraphic"/>
    </filter>
    <filter id="drop-shadow-2" x="176.66" y="86.32" width="96.76" height="77.39" filterUnits="userSpaceOnUse">
      <feOffset dx=".71" dy=".71"/>
      <feGaussianBlur result="blur-2" stdDeviation=".06"/>
      <feFlood flood-color="#231815" flood-opacity=".5"/>
      <feComposite in2="blur-2" operator="in"/>
      <feComposite in="SourceGraphic"/>
    </filter>
    <filter id="drop-shadow-3" x="177.27" y="171" width="95.42" height="79.11" filterUnits="userSpaceOnUse">
      <feOffset dx=".71" dy=".71"/>
      <feGaussianBlur result="blur-3" stdDeviation=".06"/>
      <feFlood flood-color="#231815" flood-opacity=".5"/>
      <feComposite in2="blur-3" operator="in"/>
      <feComposite in="SourceGraphic"/>
    </filter>
    <filter id="drop-shadow-4" x="174.44" y="257.32" width="101.14" height="75.35" filterUnits="userSpaceOnUse">
      <feOffset dx=".71" dy=".71"/>
      <feGaussianBlur result="blur-4" stdDeviation=".06"/>
      <feFlood flood-color="#231815" flood-opacity=".5"/>
      <feComposite in2="blur-4" operator="in"/>
      <feComposite in="SourceGraphic"/>
    </filter>
    <filter id="drop-shadow-5" x="190.76" y="360.34" width="72.81" height="56.09" filterUnits="userSpaceOnUse">
      <feOffset dx=".71" dy=".71"/>
      <feGaussianBlur result="blur-5" stdDeviation=".06"/>
      <feFlood flood-color="#231815" flood-opacity=".5"/>
      <feComposite in2="blur-5" operator="in"/>
      <feComposite in="SourceGraphic"/>
    </filter>
    <filter id="drop-shadow-6" x="24.19" y="179.86" width="80.75" height="70.73" filterUnits="userSpaceOnUse">
      <feOffset dx=".71" dy=".71"/>
      <feGaussianBlur result="blur-6" stdDeviation=".06"/>
      <feFlood flood-color="#231815" flood-opacity=".5"/>
      <feComposite in2="blur-6" operator="in"/>
      <feComposite in="SourceGraphic"/>
    </filter>
    <filter id="drop-shadow-7" x="30.92" y="261.66" width="62.5" height="64.77" filterUnits="userSpaceOnUse">
      <feOffset dx=".71" dy=".71"/>
      <feGaussianBlur result="blur-7" stdDeviation=".06"/>
      <feFlood flood-color="#231815" flood-opacity=".5"/>
      <feComposite in2="blur-7" operator="in"/>
      <feComposite in="SourceGraphic"/>
    </filter>
    <filter id="drop-shadow-8" x="0" y="343.75" width="148.62" height="114.2" filterUnits="userSpaceOnUse">
      <feOffset dx=".71" dy=".71"/>
      <feGaussianBlur result="blur-8" stdDeviation=".06"/>
      <feFlood flood-color="#231815" flood-opacity=".5"/>
      <feComposite in2="blur-8" operator="in"/>
      <feComposite in="SourceGraphic"/>
    </filter>
    <filter id="drop-shadow-9" x="16.86" y="82.36" width="98.16" height="79.43" filterUnits="userSpaceOnUse">
      <feOffset dx=".71" dy=".71"/>
      <feGaussianBlur result="blur-9" stdDeviation=".06"/>
      <feFlood flood-color="#231815" flood-opacity=".5"/>
      <feComposite in2="blur-9" operator="in"/>
      <feComposite in="SourceGraphic"/>
    </filter>
  </defs>
  <g id="_レイヤー_3" data-name="レイヤー 3">
    <g>
      <g class="cls-1">
        <g>
          <path class="cls-11" d="M187.28,13.14l14.1,4.01.15.02c2.17,0,2.5-1.11,2.5-1.77,0-.77-.33-1.83-1.84-2.43l-13.69-7.31-.25-.06c-3.42,0-4.14,1.63-4.14,3.01,0,3.17,1.74,4.21,3.17,4.53Z"/>
          <path class="cls-12" d="M188.26,5.6l.25.06,13.69,7.31c1.51.59,1.84,1.65,1.84,2.43,0,.66-.33,1.77-2.5,1.77l-.15-.02-14.1-4.01c-1.42-.31-3.17-1.36-3.17-4.53,0-1.37.72-3.01,4.14-3.01M188.26,3.6c-5.7,0-6.14,3.83-6.14,5.01,0,4.83,3.21,6.13,4.67,6.47l14.05,4c.09.03.18.04.27.06l.15.02c.09.01.18.02.28.02,3.32,0,4.5-2.03,4.5-3.77,0-1.91-1.09-3.45-2.98-4.24l-13.6-7.26c-.14-.08-.3-.14-.46-.18l-.25-.06c-.16-.04-.32-.06-.48-.06h0Z"/>
        </g>
        <g>
          <path class="cls-11" d="M211.11,22.84c.75,0,2.17-.27,4.31-.83,3.59-.54,9.6-.82,17.83-.82,5.23,0,10.07.07,14.36.2,4.41.42,7.09.62,8.19.62,1.51,0,2.75-.47,3.69-1.41.85-.92,1.27-1.98,1.27-3.18-.09-1.1-.74-1.73-1.77-1.73h-21.37l.24-3.64c4.68.14,8.4.37,11.14.7,1.12,0,2.12-.52,2.91-1.46.82-.65,1.23-1.42,1.23-2.27,0-1.97-1.24-2.18-1.78-2.18h-13.22l.07-1.11c0-1.7-.72-3.72-4.14-3.72-2.44,0-3.73,1.29-3.73,3.76l.07,1.08h-10.75c-1.02,0-1.97.35-2.83,1.07-.94.86-1.42,1.76-1.42,2.66,0,.96.44,2.58,3.49,2.58h.03c3.85-.81,6.94-1.22,9.16-1.22h2.6l.32,3.77h-17.84c-1.46,0-2.66.27-3.64.84-1.08.85-1.67,1.81-1.74,2.93.16,2.05,1.29,3.22,3.32,3.38Z"/>
          <path class="cls-12" d="M234.07,2c3.42,0,4.14,2.02,4.14,3.72l-.07,1.11h13.22c.54,0,1.78.21,1.78,2.18,0,.85-.41,1.62-1.23,2.27-.79.94-1.78,1.46-2.91,1.46-2.74-.33-6.46-.57-11.14-.7l-.24,3.64h21.37c1.03,0,1.68.63,1.77,1.73,0,1.2-.43,2.26-1.27,3.18-.94.94-2.18,1.41-3.69,1.41-1.1,0-3.78-.21-8.19-.62-4.29-.13-9.13-.2-14.36-.2-8.23,0-14.24.28-17.83.82-2.14.55-3.56.83-4.31.83-2.03-.16-3.16-1.32-3.32-3.38.08-1.12.66-2.08,1.74-2.93.98-.57,2.18-.84,3.64-.84h17.84l-.32-3.77h-2.6c-2.22,0-5.3.41-9.16,1.22h-.03c-3.05,0-3.49-1.62-3.49-2.58,0-.9.48-1.8,1.42-2.66.86-.72,1.81-1.07,2.83-1.07h10.75l-.07-1.08c0-2.47,1.29-3.76,3.73-3.76M234.07,0c-3.22,0-5.33,1.83-5.68,4.84h-8.73c-1.5,0-2.89.51-4.11,1.53-.02.02-.05.04-.07.06-1.71,1.56-2.07,3.11-2.07,4.14,0,1.11.36,2.25,1.23,3.12h-1.47c-1.84,0-3.36.36-4.64,1.11-.08.05-.16.1-.24.16-1.54,1.22-2.38,2.69-2.5,4.37,0,.1,0,.19,0,.29.24,3.04,2.16,4.99,5.16,5.22.05,0,.1,0,.15,0,.94,0,2.39-.27,4.71-.86,3.51-.52,9.37-.78,17.43-.78,5.22,0,10.01.07,14.23.2,4.5.43,7.15.63,8.31.63,2.04,0,3.8-.69,5.1-2,.02-.02.04-.04.06-.06,1.19-1.3,1.8-2.83,1.8-4.54,0-.06,0-.11,0-.17-.18-2.13-1.69-3.56-3.76-3.56h-6.74c.38-.27.74-.59,1.06-.96,1.51-1.28,1.83-2.71,1.83-3.71,0-2.89-1.9-4.18-3.78-4.18h-11.21c-.37-3.01-2.63-4.84-6.09-4.84h0Z"/>
        </g>
        <g>
          <path class="cls-11" d="M269.08,63.15c-.52,0-1.35.1-2.48.32-1.64.33-3.79.5-6.38.5-8.14,0-23.66-1.38-46.16-4.11-8.99-1.1-15.32-1.81-18.8-2.12.6-3.93,1.47-7.55,2.56-10.78,1.15-3.64,2.86-7.12,5.04-10.29,1.06-1.15,1.58-2.18,1.58-3.15,0-1.7-.72-3.73-4.14-3.73-.99,0-2.08.24-3.26.71-3.42-.47-6.93-.71-10.44-.71-4.31,0-6.5,1.39-6.5,4.14,0,1.88,1.03,2.91,2.9,2.91l.16-.03c1.09-.34,2.11-.62,2.98-.8,2.31-.2,4.89-.31,7.67-.31.2,0,.43.03.66.06.02.08.03.21.04.44-2.44,6.18-4.42,13.6-5.92,22.06-.98.43-1.88,1.05-2.66,1.84-6.59,6.04-7.48,7.65-7.48,8.42,0,1.09.43,2.9,3.32,2.9,1.54,0,2.82-.62,3.8-1.84,3.44-4.11,6.49-6.19,9.07-6.19,2.08,0,6.86.65,14.23,1.95,8.83,1.44,25.1,4.73,48.33,9.77,1.82.49,3.67.74,5.5.74,1.57,0,3.19-1.22,4.97-3.72,1.84-2.55,2.77-4.84,2.77-6.8,0-1.81-.74-2.18-1.36-2.18Z"/>
          <path class="cls-12" d="M200.3,29.8c3.42,0,4.14,2.03,4.14,3.73,0,.97-.52,1.99-1.58,3.15-2.18,3.17-3.89,6.66-5.04,10.29-1.1,3.23-1.96,6.85-2.56,10.78,3.49.31,9.81,1.02,18.8,2.12,22.5,2.73,38.02,4.11,46.16,4.11,2.59,0,4.73-.17,6.38-.5,1.13-.21,1.96-.32,2.48-.32.62,0,1.36.38,1.36,2.18,0,1.96-.93,4.25-2.77,6.8-1.78,2.51-3.4,3.72-4.97,3.72-1.83,0-3.68-.25-5.5-.74-23.23-5.04-39.5-8.34-48.33-9.77-7.36-1.29-12.15-1.95-14.23-1.95-2.57,0-5.62,2.08-9.07,6.19-.99,1.22-2.26,1.84-3.8,1.84-2.89,0-3.32-1.82-3.32-2.9,0-.77.89-2.38,7.48-8.42.79-.79,1.68-1.41,2.66-1.84,1.49-8.46,3.48-15.88,5.92-22.06,0-.23-.03-.36-.04-.44-.23-.03-.46-.06-.66-.06-2.77,0-5.35.1-7.67.31-.87.19-1.89.46-2.98.8l-.16.03c-1.87,0-2.9-1.03-2.9-2.91,0-2.75,2.19-4.14,6.5-4.14,3.51,0,7.02.24,10.44.71,1.18-.47,2.27-.71,3.26-.71M200.3,27.8c-1.09,0-2.26.22-3.49.66-3.35-.44-6.78-.66-10.21-.66-7.4,0-8.5,3.85-8.5,6.14,0,2.98,1.92,4.91,4.9,4.91.1,0,.21,0,.31-.02l.16-.03c.1-.02.19-.04.28-.07.99-.31,1.91-.56,2.69-.73,1.67-.14,3.46-.23,5.36-.27-2.01,5.56-3.68,12-5,19.21-.81.47-1.57,1.04-2.25,1.72-7.52,6.89-8.1,8.44-8.1,9.87,0,2.26,1.39,4.9,5.32,4.9,2.14,0,3.99-.89,5.36-2.58,3.97-4.74,6.41-5.45,7.51-5.45,1.35,0,4.86.33,13.88,1.92,8.78,1.43,24.99,4.71,48.2,9.75,1.97.53,3.98.79,5.97.79,2.26,0,4.42-1.49,6.6-4.57,2.08-2.88,3.14-5.56,3.14-7.96,0-3.09-1.81-4.18-3.36-4.18-.66,0-1.59.12-2.85.35-1.55.31-3.56.47-6,.47-8.06,0-23.51-1.38-45.92-4.1-7.41-.9-13.01-1.55-16.71-1.92.55-3,1.26-5.8,2.13-8.35,1.09-3.45,2.67-6.69,4.71-9.69,1.35-1.5,2.01-2.94,2.01-4.39,0-3.53-2.35-5.73-6.14-5.73h0Z"/>
        </g>
        <g>
          <path class="cls-11" d="M202.54,48.76c0,1.14.7,2.31,2.11,3.56,1.68,1.75,3.33,2.64,4.92,2.64.39,0,1.02-.14,1.93-.44,3.8-1.38,7.18-3.18,10.02-5.32,2.81-2.08,5.5-4.46,8-7.09-.02,2.66-.08,4.7-.21,6.22-.13,2.4-.2,4.73-.2,6.92,0,1.48.22,2.61.65,3.38.5,1.33,1.3,2,2.36,2s1.94-.52,2.45-1.41c.85-.93,1.28-2.26,1.28-3.97,0-2.23-.07-4.6-.21-7.04-.14-2.06-.21-4.44-.21-7.06v-3.06c3.59.08,7.58.36,11.92.81.07,0,.13,0,.2,0-2.92,1.42-6.28,2.89-10.05,4.42-1.57.52-1.91,1.52-1.91,2.25,0,.82.33,2.19,2.49,2.19.21,0,.59-.04,1.68-.34.13.13.28.22.41.26,1.06.66,2.2,1.6,3.4,2.79,3.06,3.21,5.82,6.41,8.29,9.62,1.12.9,2.3,1.35,3.53,1.35,2.01,0,3.95-.58,5.74-1.73,1.9-1.21,2.82-2.4,2.82-3.64,0-.53-.2-1.77-2-1.77h0c-1.54-.2-2.86-.47-3.9-.8-1.68-.58-5.91-3.29-12.51-8.01,4.73-1.61,8.5-3.09,11.2-4.38,1.65-.71,2.49-1.78,2.49-3.17,0-2.14-1.21-3.32-3.42-3.32-.4,0-.9.22-1.62.7-1.31.79-2.78,1.61-4.42,2.46.35-.51.59-1.25.59-2.31v-2.47c0-1.51.07-2.94.21-4.29.08-1.11.23-1.62.39-1.93l.1-.31.03-.17c0-1.93-1.02-3-2.97-3h-.03c-1.27.26-2.31.4-3.04.4-3.29-.28-6-.41-8.28-.41h-10.3c-1.63,0-2.88-.07-3.73-.2-.9-.14-1.83-.21-2.76-.21-1.88,0-2.91,1.07-2.91,3l.03.15c.53,1.81.8,3.35.8,4.59,0,1.52-.27,3.38-.82,5.66,0,1.94,1.03,3,2.91,3l.16-.03c1.53-.47,2.87-.73,4.06-.81.45-.09,1.15-.16,2.11-.23-1.67,1.56-3.6,3-5.79,4.29-2.96,1.75-6.09,2.97-9.33,3.65-1.35.34-3.4.65-6.07.91-1.87.1-2.42.9-2.57,1.67ZM233.25,33.4c-3.17,0-6.02.14-8.45.41-1.2,0-1.4-.49-1.42-1.05.28-1.07.41-2.16.41-3.26,0-.92.4-1.11,1.01-1.11,8.4,0,14.9.14,19.35.41.27,0,.29.05.29.28v4.02c0,.52-.18.7-.66.7-3.85-.28-7.39-.41-10.54-.41Z"/>
          <path class="cls-12" d="M219.97,22.9c.93,0,1.85.07,2.76.21.85.13,2.1.2,3.73.2h10.3c2.28,0,4.99.13,8.28.41.73,0,1.77-.13,3.04-.4h.03c1.95,0,2.97,1.06,2.97,3l-.03.17-.1.31c-.15.31-.31.82-.39,1.93-.14,1.34-.21,2.78-.21,4.29v2.47c0,1.06-.24,1.8-.59,2.31,1.63-.85,3.11-1.67,4.42-2.46.71-.48,1.22-.7,1.62-.7,2.2,0,3.42,1.18,3.42,3.32,0,1.39-.84,2.46-2.49,3.17-2.71,1.29-6.48,2.76-11.2,4.38,6.6,4.72,10.83,7.43,12.51,8.01,1.05.33,2.36.59,3.9.8h0c1.8,0,2,1.24,2,1.77,0,1.24-.92,2.43-2.82,3.64-1.79,1.15-3.73,1.73-5.74,1.73-1.22,0-2.4-.46-3.53-1.35-2.46-3.21-5.23-6.41-8.29-9.62-1.2-1.19-2.35-2.14-3.4-2.79-.13-.04-.28-.13-.41-.26-1.09.3-1.47.34-1.68.34-2.16,0-2.49-1.37-2.49-2.19,0-.74.34-1.73,1.91-2.25,3.77-1.52,7.12-3,10.05-4.42-.07,0-.13,0-.2,0-4.34-.46-8.33-.73-11.92-.81v3.06c0,2.63.07,5.01.21,7.06.14,2.44.21,4.81.21,7.04,0,1.71-.43,3.04-1.28,3.97-.5.89-1.37,1.41-2.45,1.41s-1.86-.67-2.36-2c-.43-.77-.65-1.9-.65-3.38,0-2.19.07-4.52.2-6.92.13-1.52.19-3.56.21-6.22-2.51,2.64-5.19,5.01-8,7.09-2.84,2.15-6.22,3.94-10.02,5.32-.9.3-1.53.44-1.93.44-1.59,0-3.24-.89-4.92-2.64-1.41-1.25-2.11-2.43-2.11-3.56.15-.76.7-1.57,2.57-1.67,2.66-.26,4.72-.57,6.07-.91,3.24-.67,6.38-1.9,9.33-3.65,2.19-1.29,4.12-2.73,5.79-4.29-.96.06-1.66.14-2.11.23-1.19.08-2.53.34-4.06.81l-.16.03c-1.88,0-2.91-1.07-2.91-3,.55-2.29.82-4.15.82-5.66,0-1.24-.27-2.78-.8-4.59l-.03-.15c0-1.94,1.03-3,2.91-3M224.8,33.81c2.42-.27,5.28-.41,8.45-.41s6.69.14,10.54.41c.49,0,.66-.18.66-.7v-4.02c0-.24-.03-.28-.29-.28-4.46-.28-10.96-.41-19.35-.41-.6,0-1.01.19-1.01,1.11,0,1.1-.13,2.19-.41,3.26.02.55.22,1.05,1.42,1.05M219.97,20.9c-2.98,0-4.91,1.96-4.91,5,0,.11,0,.22.03.33l.03.15c.01.08.03.16.05.23.48,1.63.72,2.98.72,4.03,0,1.36-.25,3.06-.77,5.19-.04.15-.06.31-.06.47,0,2.63,1.44,4.45,3.75,4.9-2.57,1.43-5.27,2.45-8.04,3.02-.03,0-.05.01-.08.02-1.22.31-3.2.6-5.73.85-3.41.2-4.2,2.35-4.38,3.27-.03.13-.04.26-.04.39,0,1.72.89,3.35,2.72,5,2.05,2.12,4.17,3.2,6.31,3.2.64,0,1.42-.17,2.56-.55.02,0,.03-.01.05-.02,4-1.45,7.54-3.34,10.54-5.61,1.6-1.18,3.16-2.46,4.67-3.83-.02.43-.05.83-.08,1.2,0,.02,0,.04,0,.05-.14,2.43-.2,4.79-.2,7.04,0,1.77.27,3.15.83,4.22,1.1,2.75,3.08,3.16,4.18,3.16,1.71,0,3.18-.81,4.07-2.23,1.1-1.29,1.66-3.02,1.66-5.15,0-1.8-.04-3.64-.13-5.5.12,0,.24.01.36.01.31,0,.67-.04,1.33-.19.84.56,1.75,1.33,2.73,2.3,3.01,3.16,5.75,6.34,8.13,9.44.1.13.21.24.34.34,1.49,1.19,3.09,1.79,4.78,1.79,2.4,0,4.7-.69,6.82-2.05,2.52-1.61,3.75-3.35,3.75-5.33,0-1.78-1.21-3.7-3.87-3.77-1.36-.18-2.51-.42-3.42-.7-.75-.27-2.86-1.36-8.82-5.51,3.1-1.13,5.69-2.19,7.71-3.16,3.18-1.39,3.66-3.72,3.66-4.99,0-3.23-2.13-5.32-5.42-5.32-1.04,0-1.98.54-2.69,1.01-.24.15-.49.29-.74.44v-1.08c0-1.46.07-2.84.2-4.07,0-.03,0-.05,0-.08.06-.91.18-1.16.19-1.19.04-.08.07-.16.1-.25l.1-.31c.04-.11.06-.22.08-.33l.03-.17c.01-.1.02-.2.02-.3,0-3.03-1.95-5-4.97-5-.14,0-.31.01-.44.04-1.4.29-2.18.35-2.56.36-3.3-.28-6.04-.41-8.35-.41h-10.3c-1.9,0-2.91-.09-3.42-.17-1-.16-2.03-.24-3.06-.24h0ZM225.64,31.72c.06-.44.11-.88.14-1.32,6.97,0,12.56.12,16.68.32v1c-3.31-.21-6.4-.32-9.2-.32s-5.34.11-7.61.32h0ZM224.62,31.8h0,0ZM237.43,41.19v-1.03c.72.03,1.47.07,2.22.11-.73.31-1.47.61-2.22.92h0Z"/>
        </g>
      </g>
      <g class="cls-3">
        <g>
          <path class="cls-11" d="M230.31,94.95h.02c5.99-.75,12.44-1.13,19.19-1.13.8,0,1.03.21,1.09.4l-7.56,7.76c-6.38-3.67-6.85-3.67-7.12-3.67-3.5,0-4.24,2.08-4.24,3.83,0,1.44,1.27,2.55,3.86,3.4,2.47.8,6.23,2.99,11.2,6.53,1.08.69,1.86,1.01,2.46,1.01,2.89,0,3.32-1.82,3.32-2.91,0-.75-.49-2.08-4.59-5.06,4.87-4.47,9.04-7.95,12.36-10.33,1.56-.94,2.32-1.83,2.32-2.73,0-2.14-1.21-3.32-3.42-3.32h-3.16c-4.2-.27-12.32-.41-24.12-.41-1.56,0-2.82.39-3.73,1.14-1.1.85-1.65,1.86-1.65,3s.65,2.49,3.78,2.49Z"/>
          <path class="cls-12" d="M231.91,88.32c11.81,0,19.92.14,24.12.41h3.16c2.2,0,3.42,1.18,3.42,3.32,0,.9-.76,1.79-2.32,2.73-3.32,2.38-7.49,5.86-12.36,10.33,4.1,2.99,4.59,4.32,4.59,5.06,0,1.09-.43,2.91-3.32,2.91-.6,0-1.37-.32-2.46-1.01-4.97-3.54-8.73-5.73-11.2-6.53-2.6-.85-3.86-1.96-3.86-3.4,0-1.75.74-3.83,4.24-3.83.28,0,.75,0,7.12,3.67l7.56-7.76c-.06-.19-.28-.4-1.09-.4-6.74,0-13.2.38-19.19,1.13h-.02c-3.13,0-3.78-1.35-3.78-2.49s.55-2.14,1.65-3c.9-.75,2.17-1.14,3.73-1.14M231.91,86.32c-2.03,0-3.71.53-4.98,1.59-1.98,1.55-2.4,3.33-2.4,4.55,0,1.05.42,4.49,5.78,4.49.08,0,.18,0,.26-.02,1.05-.13,2.12-.25,3.21-.36-2.57.69-4.1,2.69-4.1,5.56,0,2.38,1.76,4.17,5.24,5.3,1.57.51,4.69,2,10.66,6.25.03.02.06.04.08.06,1.44.92,2.53,1.33,3.53,1.33,2.45,0,5.32-1.29,5.32-4.91,0-1.58-1.03-3.15-3.48-5.19,4.01-3.61,7.49-6.48,10.35-8.53.88-.53,3.22-2.01,3.22-4.4,0-3.23-2.13-5.32-5.42-5.32h-3.09c-4.26-.27-12.4-.41-24.19-.41h0ZM236.4,96.34c3.18-.26,6.46-.42,9.83-.48l-3.53,3.62c-4.4-2.51-5.61-3.03-6.3-3.14h0Z"/>
        </g>
        <g>
          <path class="cls-11" d="M219.73,142.17h0c-3.54.27-8.6.8-15.06,1.58l.18-8.12c1.45,0,2.89.04,4.26.1,2.66.21,4.32.31,5.09.31,1.44,0,2.67-.47,3.69-1.41.85-.93,1.28-1.99,1.28-3.2-.1-1.01-.72-1.63-1.78-1.72h-12.53l.08-6.12c3.78.14,7.95.41,12.44.8,1.52,0,3.32-.67,3.32-3.86-.28-4.25-.41-7.67-.41-10.16,0-3.77.13-7.32.41-10.59.07-2.46.26-4.17.6-5.12.19-.7.22-.93.22-1.07,0-3.08-1.8-3.73-3.32-3.73l-.18.03c-1.44.52-2.59.79-3.38.79-4.06-.27-7.6-.41-10.53-.41h-12.87c-1.85,0-3.26-.13-4.17-.39-1.01-.29-2.03-.44-3.03-.44-2.2,0-3.42,1.21-3.42,3.47.54,5.55.82,10.34.82,14.26s-.28,8.47-.82,13.8c0,2.23,1.17,3.41,3.49,3.41h.03c1.94-.33,3.62-.54,5-.62,1.46-.13,4.55-.2,9.19-.2v6.14h-10.68c-1.61,0-2.92.3-3.95.95-1.14.99-1.76,2.05-1.83,3.25.24,2.04,1.52,3.2,3.73,3.36.31,0,.96-.09,2.9-.84,2.08-.45,5.39-.72,9.84-.8v8.97c-4.37.53-9.41,1.21-14.98,2-2.14.31-3.33.78-3.76,1.47-.62.92-.92,2.2-.92,3.9,0,1.32.64,2.89,3.81,2.89h.04c11.3-2.72,23.73-5.14,36.97-7.21,1.61-.4,2.45-1.55,2.45-3.3,0-1.39-.8-2.19-2.21-2.19ZM198.32,109.7v7.98c-3.33.08-6.2.21-8.73.4-1.83,0-1.83-.78-1.83-1.07.2-2.35.36-4.55.49-6.72h.26c2.72-.26,6.02-.46,9.81-.59ZM188.5,104c.06-2.2.08-4.45.08-6.7,0-1.08.41-1.52,1.42-1.52,2.94,0,5.73.03,8.31.09v8.11h-9.14c-.23,0-.45,0-.68.03ZM205.15,109.56c2.87-.06,5.87-.09,8.92-.09v7.91c0,.26,0,.7-1.07.7-2.72-.19-5.4-.32-7.93-.4l.08-8.12ZM205.28,103.97l.18-8.08c3.29.07,6.02.17,8.33.3.09,0,.28,0,.28.7v7.08h-8.8Z"/>
          <path class="cls-12" d="M184.04,89.45c1.01,0,2.02.15,3.03.44.91.26,2.32.39,4.17.39h12.87c2.93,0,6.48.14,10.53.41.8,0,1.94-.26,3.38-.79l.18-.03c1.52,0,3.32.65,3.32,3.73,0,.14-.03.37-.22,1.07-.34.95-.54,2.66-.6,5.12-.28,3.27-.41,6.82-.41,10.59,0,2.49.13,5.91.41,10.16,0,3.2-1.8,3.86-3.32,3.86-4.49-.39-8.66-.66-12.44-.8l-.08,6.12h12.53c1.06.09,1.68.7,1.78,1.72,0,1.21-.43,2.27-1.28,3.2-1.01.94-2.25,1.41-3.69,1.41-.76,0-2.42-.1-5.09-.31-1.37-.06-2.82-.09-4.26-.1l-.18,8.12c6.45-.78,11.52-1.31,15.06-1.58h0c1.42,0,2.21.8,2.21,2.19,0,1.75-.85,2.89-2.45,3.3-13.25,2.07-25.67,4.49-36.97,7.21h-.06c-3.16,0-3.8-1.57-3.8-2.89,0-1.7.3-2.98.92-3.9.43-.69,1.63-1.16,3.76-1.47,5.57-.79,10.61-1.47,14.98-2v-8.97c-4.46.08-7.77.35-9.84.8-1.94.75-2.59.84-2.9.84-2.21-.16-3.49-1.32-3.73-3.36.08-1.2.7-2.26,1.83-3.25,1.04-.65,2.35-.95,3.95-.95h10.68v-6.14c-4.64,0-7.73.07-9.19.2-1.38.08-3.06.28-5,.62h-.03c-2.31,0-3.49-1.18-3.49-3.41.54-5.32.82-9.95.82-13.8s-.28-8.71-.82-14.26c0-2.26,1.21-3.47,3.42-3.47M188.5,104c.23-.02.45-.03.68-.03h9.14v-8.11c-2.58-.06-5.37-.09-8.31-.09-1.01,0-1.42.44-1.42,1.52,0,2.25-.03,4.5-.08,6.7M205.28,103.97h8.8v-7.08c0-.7-.19-.7-.28-.7-2.31-.13-5.04-.23-8.33-.3l-.18,8.08M213,118.08c1.07,0,1.07-.44,1.07-.7v-7.91c-3.06,0-6.05.03-8.92.09l-.08,8.12c2.54.08,5.21.21,7.93.4M189.59,118.08c2.53-.19,5.4-.33,8.73-.4v-7.98c-3.79.13-7.09.34-9.81.59h-.26c-.13,2.17-.29,4.37-.49,6.72,0,.29,0,1.07,1.83,1.07M184.04,87.45c-3.34,0-5.42,2.1-5.42,5.47,0,.07,0,.13,0,.2.54,5.49.81,10.22.81,14.06s-.27,8.33-.81,13.59c0,.07-.01.14-.01.2,0,3.34,2.1,5.41,5.49,5.41.11,0,.25,0,.36-.03,1.85-.32,3.46-.52,4.77-.59.02,0,.05,0,.07,0,1.18-.1,3.53-.17,7.01-.19v2.13h-8.68c-2.02,0-3.66.41-5.01,1.25-.09.06-.17.12-.25.19-1.56,1.36-2.41,2.92-2.52,4.64,0,.12,0,.24.01.36.36,3.02,2.39,4.88,5.57,5.11.05,0,.1,0,.14,0,.56,0,1.38-.11,3.47-.91,1.63-.34,4.07-.56,7.27-.67v5.15c-3.86.48-8.32,1.08-13.26,1.79-2.82.41-4.37,1.12-5.16,2.36-.84,1.26-1.24,2.89-1.24,4.99,0,1.15.42,4.89,5.8,4.89.16,0,.37-.02.52-.06,11.25-2.7,23.63-5.12,36.81-7.17.06,0,.12-.02.18-.04,2.49-.62,3.97-2.58,3.97-5.24,0-2.5-1.69-4.19-4.21-4.19-.05,0-.11,0-.16,0-3.13.24-7.44.68-12.85,1.31l.09-3.84c.75.02,1.48.04,2.19.07,2.72.21,4.38.31,5.21.31,1.96,0,3.66-.65,5.05-1.94.04-.03.07-.07.11-.11,1.2-1.3,1.81-2.83,1.81-4.55,0-.07,0-.13,0-.2-.2-1.99-1.57-3.34-3.59-3.51-.06,0-.12,0-.17,0h-10.5l.03-2.03c3.21.15,6.66.39,10.3.71.06,0,.12,0,.17,0,3.92,0,5.32-3.03,5.32-5.86,0-.04,0-.09,0-.13-.27-4.15-.41-7.52-.41-10.03,0-3.75.14-7.26.4-10.42,0-.04,0-.08,0-.11.08-2.97.34-4.09.48-4.49.02-.05.03-.1.05-.15.21-.76.29-1.2.29-1.6,0-4.22-2.75-5.73-5.32-5.73-.12,0-.24.01-.36.03l-.18.03c-.11.02-.22.05-.32.09-1.56.57-2.34.66-2.65.67-4.07-.27-7.63-.41-10.59-.41h-12.87c-2.2,0-3.21-.2-3.63-.31-1.19-.34-2.4-.51-3.58-.51h0ZM190.55,101.97c.02-1.35.04-2.75.04-4.19,1.99,0,3.91.02,5.74.05v4.14h-5.77ZM207.32,101.97l.09-4.03c1.72.05,3.27.1,4.66.17v3.87h-4.75ZM207.13,111.53c1.66-.03,3.31-.04,4.94-.05v4.54c-1.69-.11-3.36-.2-4.99-.26l.04-4.22h0ZM190.14,112.16c1.86-.15,3.92-.28,6.18-.38v3.95c-2.37.07-4.5.18-6.47.32.11-1.33.2-2.62.29-3.9h0Z"/>
        </g>
        <g>
          <path class="cls-11" d="M266.92,113.65h-2.86c-6.26-.28-18.32-.41-35.86-.41-1.49,0-2.71.39-3.63,1.14-1.09.86-1.64,1.87-1.64,3s.65,2.59,3.77,2.59h0c4.25-.39,8.68-.69,13.2-.89-.07.46-.1.95-.1,1.5,0,1.16.08,3.77.21,7.56.34,4.32.51,8.74.51,13.13,0,3.58-.2,6.06-.59,7.35-.36,1.08-1.29,1.94-2.82,2.57-1.3.65-4.31,1.15-9.03,1.5-1.52.32-1.91,1.28-1.97,2.07,0,1.66.69,3.11,2.04,4.32,1.12.97,2.49,1.47,4.06,1.47,2.59,0,5.32-.49,8.1-1.47,4.61-1.58,6.95-5.36,6.95-11.21,0-4.53-.13-11.12-.41-19.56,0-1.85.13-3.9.39-6.04.28-1.08.43-1.89.43-2.51,0-.33-.03-.63-.07-.92,3.44-.06,6.73-.09,10.04-.09,1.15,0,1.37.33,1.41.56l-4.71,7.63c-.63.78-.95,1.62-.95,2.5,0,.82.33,2.18,2.6,2.18.79,0,1.66-.53,2.66-1.63,3.89-4.43,7.17-7.92,9.69-10.31,1.25-.86,1.88-1.77,1.88-2.71,0-2.14-1.17-3.31-3.31-3.31Z"/>
          <path class="cls-12" d="M228.2,113.24c17.54,0,29.6.14,35.86.41h2.86c2.14,0,3.31,1.18,3.31,3.31,0,.94-.63,1.85-1.88,2.71-2.51,2.38-5.8,5.87-9.69,10.31-1.01,1.1-1.88,1.63-2.66,1.63-2.26,0-2.6-1.37-2.6-2.18,0-.88.32-1.72.95-2.5l4.71-7.63c-.04-.23-.26-.56-1.41-.56-3.31,0-6.6.03-10.04.09.04.28.07.59.07.92,0,.61-.14,1.43-.43,2.51-.26,2.14-.39,4.19-.39,6.04.28,8.44.41,15.03.41,19.56,0,5.86-2.34,9.63-6.95,11.21-2.78.98-5.51,1.47-8.1,1.47-1.58,0-2.94-.49-4.06-1.47-1.35-1.21-2.04-2.66-2.04-4.32.06-.79.45-1.75,1.97-2.07,4.72-.35,7.73-.85,9.03-1.5,1.53-.64,2.46-1.5,2.82-2.57.39-1.29.59-3.77.59-7.35,0-4.39-.17-8.81-.51-13.13-.13-3.79-.21-6.4-.21-7.56,0-.54.03-1.03.1-1.5-4.52.2-8.96.5-13.2.89h0c-3.13,0-3.77-1.41-3.77-2.59s.55-2.14,1.64-3c.91-.75,2.14-1.14,3.63-1.14M228.2,111.24c-1.97,0-3.61.54-4.9,1.6-1.95,1.55-2.37,3.33-2.37,4.54,0,1.08.42,4.59,5.77,4.59.06,0,.13,0,.19,0,3.56-.33,7.23-.59,10.93-.78.02,1.3.08,3.57.21,7.02,0,.03,0,.06,0,.09.33,4.21.5,8.58.5,12.97s-.3,6.08-.49,6.74c-.22.62-1.04,1.06-1.68,1.33-.04.02-.09.04-.13.06-.48.24-2.25.85-8.28,1.29-.09,0-.18.02-.27.04-2.07.44-3.4,1.89-3.55,3.88,0,.05,0,.1,0,.15,0,2.22.93,4.23,2.7,5.81,1.52,1.32,3.33,1.98,5.4,1.98,2.82,0,5.77-.53,8.76-1.58,3.77-1.3,8.28-4.63,8.28-13.1,0-4.68-.14-11.28-.41-19.59,0-1.73.12-3.63.36-5.63.18-.7.31-1.3.38-1.83,2.08-.03,4.14-.05,6.22-.06l-3.11,5.04c-.85,1.1-1.31,2.36-1.31,3.65,0,1.93,1.2,4.18,4.6,4.18,1.38,0,2.74-.74,4.14-2.27,3.81-4.34,6.99-7.73,9.48-10.1,1.73-1.23,2.61-2.66,2.61-4.26,0-3.23-2.08-5.31-5.31-5.31h-2.81c-6.27-.28-18.35-.41-35.9-.41h0Z"/>
        </g>
      </g>
      <g class="cls-2">
        <g>
          <path class="cls-11" d="M214.11,212.55c0-1.39-.83-2.2-2.27-2.17-1.79.32-4.11.85-6.9,1.58l-.09-12.84c1.37.07,2.94.16,4.71.28,1.19,0,2.21-.23,3.08-.71.97-.65,1.47-1.67,1.47-3.02,0-1.97-1.23-2.18-1.74-2.18-2.92-.12-5.41-.22-7.51-.29.07-4.83.2-10.08.4-15.64,0-3.76-2.03-4.55-3.73-4.55s-3.73.79-3.73,4.57c.2,5.83.3,10.91.31,15.52-3.53.07-6.58.21-9.04.4-1.11,0-1.11-.4-1.12-.51.55-3.51.84-6.52.84-8.94,0-1.56-.79-3.42-4.56-3.42-2.14,0-3.31,1.07-3.31,3.01,0,.6.18,1.78.51,3.44.14,1.82.21,3.08.21,3.98,0,1.62-.26,3.19-.77,4.68-1.43,1.92-1.6,2.71-1.6,3.14,0,.97.38,2.6,2.91,2.6.22,0,.63-.05,1.65-.46,1.39-.59,3.07-.99,5.01-1.19,3.07-.45,6.18-.69,9.28-.71v14.81c-4.27,1.27-9.31,2.87-14.99,4.74-1.63.59-2.64,1.45-2.99,2.54-.57.91-.86,2.2-.86,3.83,0,1.37.65,3,3.73,3l.25-.06c4.68-2.46,9.64-4.78,14.75-6.88-.07,5.69-.13,11.98-.19,18.86,0,1.71,0,6.92,3.32,6.92,2.75,0,4.14-2.33,4.14-6.92l-.21-21.66c2.26-.86,4.52-1.68,6.7-2.43,1.07-.28,2.35-1.08,2.35-3.3Z"/>
          <path class="cls-12" d="M201.54,173c1.7,0,3.73.79,3.73,4.55-.2,5.56-.33,10.81-.4,15.64,2.09.07,4.59.17,7.51.29.51,0,1.74.21,1.74,2.18,0,1.35-.49,2.37-1.47,3.02-.87.48-1.89.71-3.08.71-1.77-.12-3.33-.21-4.71-.28l.09,12.84c2.79-.73,5.1-1.26,6.9-1.58.02,0,.04,0,.06,0,1.4,0,2.21.81,2.21,2.17,0,2.22-1.28,3.02-2.35,3.3-2.18.75-4.44,1.57-6.7,2.43l.21,21.66c0,4.6-1.39,6.92-4.14,6.92-3.32,0-3.32-5.21-3.32-6.92.07-6.88.13-13.17.19-18.86-5.11,2.1-10.07,4.42-14.75,6.88l-.25.06c-3.08,0-3.73-1.63-3.73-3,0-1.63.29-2.92.86-3.83.35-1.09,1.36-1.94,2.99-2.54,5.68-1.87,10.72-3.46,14.99-4.74v-14.81c-3.09.02-6.21.26-9.28.71-1.94.2-3.62.6-5.01,1.19-1.02.41-1.43.46-1.65.46-2.53,0-2.91-1.63-2.91-2.6,0-.43.17-1.21,1.6-3.14.51-1.49.77-3.07.77-4.68,0-.9-.07-2.16-.21-3.98-.34-1.66-.51-2.84-.51-3.44,0-1.94,1.17-3.01,3.31-3.01,3.77,0,4.56,1.86,4.56,3.42,0,2.42-.28,5.43-.84,8.94,0,.11,0,.51,1.12.51,2.46-.2,5.51-.33,9.04-.4,0-4.61-.11-9.69-.31-15.52,0-3.78,2.03-4.57,3.73-4.57M201.54,171c-1.34,0-5.73.47-5.73,6.57,0,.02,0,.05,0,.07.17,4.97.27,9.41.3,13.5-2.2.06-4.17.15-5.9.27.39-2.84.58-5.31.58-7.36,0-1.27-.47-5.42-6.56-5.42-3.23,0-5.31,1.97-5.31,5.01,0,.47.06,1.36.53,3.71.13,1.71.19,2.89.19,3.7,0,1.29-.19,2.56-.57,3.75-1.28,1.76-1.8,2.95-1.8,4.07,0,2.12,1.29,4.6,4.91,4.6.63,0,1.35-.18,2.4-.6,1.24-.53,2.73-.88,4.47-1.06.03,0,.06,0,.08-.01,2.32-.34,4.67-.56,6.99-.65v11.28c-3.97,1.2-8.54,2.65-13.62,4.33-.02,0-.04.01-.06.02-2.14.78-3.52,1.98-4.13,3.56-.69,1.21-1.04,2.79-1.04,4.69,0,2.42,1.5,5,5.73,5,.16,0,.33-.02.48-.06l.25-.06c.16-.04.31-.1.45-.17,3.75-1.98,7.7-3.86,11.78-5.62-.04,3.95-.08,8.17-.13,12.65l-.03,3.16c0,5.94,1.79,8.94,5.32,8.94,2.29,0,6.14-1.16,6.14-8.92l-.2-20.28c1.75-.65,3.52-1.29,5.28-1.89,2.36-.65,3.77-2.59,3.77-5.21s-1.69-4.17-4.21-4.17h-.1c-.11,0-.21.01-.31.03-1.26.22-2.79.55-4.56.99l-.06-8.17c.75.04,1.59.1,2.56.16.04,0,.09,0,.13,0,1.53,0,2.89-.32,4.04-.95.05-.03.1-.06.15-.09,1.07-.72,2.36-2.11,2.36-4.68,0-2.86-1.85-4.16-3.69-4.18-2.05-.09-3.89-.16-5.53-.22.07-4.31.2-8.88.37-13.64,0-.02,0-.05,0-.07,0-6.08-4.38-6.55-5.73-6.55h0Z"/>
        </g>
        <g>
          <path class="cls-11" d="M265.47,186.28l-.16.03c-2.14.66-3.06.8-3.44.8h-19.87c-4.1,0-7.37.05-9.75.16,1.27-2.24,2.46-4.59,3.5-6.94.61-.91.92-1.84.92-2.77s-.39-2.49-3.01-2.49c-.44,0-.9.27-1.52.88l-.11.15c-2.16,4.6-4.51,8.18-7.01,10.69-2.25,2.57-4.78,4.45-7.54,5.58-1.96.13-2.38.97-2.38,1.66,0,1.33.8,2.65,2.36,3.92,1.52,1.24,3.07,1.87,4.56,1.87,1.15,0,2.47-1.01,4.01-3.08.58-.7,1.15-1.45,1.68-2.22.23.03.49.05.79.05.66,0,2.19-.24,4.62-.73.59-.1,1.21-.18,1.83-.24-.7,3.53-1.95,7.05-3.71,10.46-2.83,4.78-5.68,8.15-8.53,10.05-2.61,2.13-5.16,3.48-7.59,4.01-.72.15-2.9.6-2.9,2.07,0,1.18.65,2.44,1.99,3.86,1.41,1.55,2.82,2.34,4.21,2.34s3.67-1.15,6.84-3.53c2.36-2.07,4.54-4.57,6.47-7.39,3.18-4.35,5.7-9.39,7.5-15.01.87-3.25,1.57-5.7,2.06-7.32v-.02c1.57-.05,3.16-.08,4.73-.08h1.61c-.75,6.32-2.36,12.51-4.77,18.39-3.45,7.65-6.98,13.02-10.52,16.02-3.14,3.35-6.24,5.48-9.18,6.33-.72.15-2.9.61-2.9,2.17,0,1.19.69,2.49,2.09,3.96,1.53,1.69,3.06,2.54,4.52,2.54,1.73,0,4.43-1.66,8.32-5.12,2.83-3.1,5.42-6.77,7.68-10.89,3.91-6.39,6.98-13.79,9.12-21.99,1.08-4.78,1.94-8.38,2.58-10.68l.2-.72,6.28-.02c.28,0,.7,0,.7,1.01,0,1.83-.31,6.91-.93,15.09-1.21,13.15-2.77,21.17-4.66,23.87-1.41,2.37-4.78,3.85-10.04,4.38-1.34.25-2.09,1.17-2.09,2.58,0,1.27.44,2.61,1.35,4.03,1.27,1.64,2.9,2.48,4.85,2.48,4,0,7.47-1.8,10.3-5.34,3.22-3.85,5.23-11.99,5.99-24.2.55-8.8,1.59-17.68,3.09-26.49,0-2.71-1.43-4.14-4.14-4.14Z"/>
          <path class="cls-12" d="M233.66,175.06c2.61,0,3.01,1.56,3.01,2.49s-.31,1.86-.92,2.77c-1.05,2.35-2.24,4.7-3.5,6.94,2.38-.1,5.66-.16,9.75-.16h19.87c.39,0,1.3-.14,3.44-.8l.16-.03c2.71,0,4.14,1.43,4.14,4.14-1.5,8.81-2.54,17.7-3.09,26.49-.76,12.2-2.77,20.34-5.99,24.2-2.83,3.54-6.3,5.34-10.3,5.34-1.95,0-3.58-.83-4.85-2.48-.9-1.42-1.35-2.76-1.35-4.03,0-1.42.75-2.33,2.09-2.58,5.26-.53,8.63-2.01,10.04-4.38,1.89-2.7,3.44-10.72,4.66-23.87.62-8.17.93-13.25.93-15.09,0-1.01-.43-1.01-.7-1.01l-6.28.02-.2.72c-.64,2.3-1.5,5.9-2.58,10.68-2.14,8.2-5.2,15.6-9.12,21.99-2.26,4.11-4.85,7.78-7.68,10.89-3.89,3.46-6.59,5.12-8.32,5.12-1.46,0-2.98-.85-4.52-2.54-1.41-1.47-2.09-2.78-2.09-3.96,0-1.57,2.18-2.02,2.9-2.17,2.94-.85,6.04-2.98,9.18-6.33,3.54-3,7.06-8.37,10.52-16.02,2.4-5.88,4.01-12.07,4.77-18.39h-1.61c-1.57,0-3.16.03-4.72.08v.02c-.5,1.62-1.2,4.08-2.07,7.32-1.8,5.62-4.32,10.66-7.5,15.01-1.93,2.83-4.11,5.32-6.47,7.39-3.17,2.38-5.4,3.53-6.84,3.53s-2.8-.79-4.21-2.34c-1.34-1.42-1.99-2.68-1.99-3.86,0-1.47,2.18-1.92,2.9-2.07,2.43-.53,4.99-1.88,7.59-4.01,2.85-1.9,5.7-5.27,8.53-10.05,1.76-3.4,3.01-6.92,3.71-10.46-.62.06-1.23.14-1.83.24-2.43.49-3.95.73-4.62.73-.29,0-.55-.02-.79-.05-.54.77-1.11,1.51-1.68,2.22-1.54,2.07-2.87,3.08-4.01,3.08-1.49,0-3.03-.63-4.56-1.87-1.57-1.27-2.36-2.58-2.36-3.92,0-.69.42-1.54,2.38-1.66,2.76-1.13,5.3-3.01,7.54-5.58,2.51-2.51,4.85-6.09,7.01-10.69l.11-.15c.62-.61,1.08-.88,1.52-.88M233.66,173.06c-1.28,0-2.23.77-2.92,1.45-.09.09-.17.18-.24.28l-.11.15c-.07.09-.12.19-.17.3-2.07,4.39-4.29,7.8-6.62,10.12-.03.03-.06.06-.09.1-1.97,2.25-4.16,3.91-6.52,4.93-2.86.31-3.89,2.06-3.89,3.63,0,1.96,1.04,3.8,3.1,5.47,1.88,1.54,3.84,2.32,5.82,2.32,1.85,0,3.62-1.22,5.59-3.85.39-.47.76-.94,1.1-1.41.53-.02,1.46-.12,3.59-.53-.68,2.38-1.62,4.74-2.81,7.05-2.67,4.5-5.32,7.64-7.89,9.36-.05.04-.11.07-.16.12-2.36,1.93-4.63,3.14-6.75,3.6-3.69.75-4.47,2.6-4.47,4.02,0,1.71.83,3.43,2.54,5.23,1.78,1.96,3.69,2.96,5.66,2.96s4.43-1.21,8.04-3.93c.04-.03.08-.06.12-.09,2.48-2.18,4.76-4.78,6.78-7.74,3.3-4.52,5.91-9.75,7.77-15.55,0-.03.02-.06.03-.09.62-2.32,1.18-4.33,1.64-5.9.85-.02,1.7-.03,2.53-.04-.82,5.34-2.26,10.58-4.31,15.6-3.32,7.35-6.67,12.49-9.97,15.28-.06.05-.11.1-.17.16-2.87,3.06-5.63,4.99-8.21,5.76-3.64.79-4.41,2.67-4.41,4.11,0,1.73.87,3.48,2.65,5.34,1.89,2.09,3.91,3.16,5.96,3.16,2.3,0,5.27-1.73,9.65-5.62.05-.05.1-.1.15-.15,2.93-3.21,5.6-6.99,7.94-11.23,4-6.55,7.14-14.12,9.32-22.49,0-.02.01-.04.02-.06.99-4.4,1.77-7.64,2.36-9.85h3.43c-.06,1.85-.29,5.77-.9,13.93-1.55,16.76-3.36,21.53-4.3,22.88-.03.04-.06.08-.08.12-1.05,1.77-4,2.95-8.52,3.41-.06,0-.11.01-.17.02-2.29.43-3.72,2.17-3.72,4.55,0,1.66.56,3.38,1.66,5.11.03.05.07.1.11.15,1.65,2.13,3.87,3.25,6.43,3.25,4.63,0,8.62-2.05,11.86-6.09,3.51-4.21,5.62-12.5,6.43-25.32.55-8.69,1.58-17.54,3.07-26.28.02-.11.03-.22.03-.34,0-3.79-2.35-6.14-6.14-6.14-.1,0-.21,0-.31.02l-.16.03c-.09.01-.18.04-.27.06-2.23.68-2.84.71-2.86.71h-19.87c-2.39,0-4.51.02-6.35.05.66-1.29,1.28-2.58,1.86-3.87.77-1.2,1.16-2.45,1.16-3.73,0-2.07-1.31-4.49-5.01-4.49h0Z"/>
        </g>
      </g>
      <g class="cls-9">
        <g>
          <path class="cls-11" d="M189.09,265.64h.02c4.01-.54,9.67-.82,16.81-.82,2.89,0,3.32-1.56,3.32-2.49,0-1.94-1.18-3.01-3.32-3.01h-16.06c-3.76,0-4.55,1.86-4.55,3.42,0,1.32.65,2.9,3.79,2.9Z"/>
          <path class="cls-12" d="M205.91,259.32c2.14,0,3.32,1.07,3.32,3.01,0,.93-.43,2.49-3.32,2.49-7.14,0-12.79.28-16.81.82h-.02c-3.14,0-3.79-1.58-3.79-2.9,0-1.56.79-3.42,4.55-3.42h16.06M205.91,257.32h-16.06c-6.08,0-6.55,4.15-6.55,5.42,0,2.37,1.52,4.9,5.79,4.9.09,0,.2,0,.29-.02,3.93-.53,9.49-.8,16.54-.8,3.93,0,5.32-2.42,5.32-4.49,0-3.04-2.09-5.01-5.32-5.01h0Z"/>
        </g>
        <g>
          <path class="cls-11" d="M195.51,276.97c3.41,0,6.59.03,9.43.1,2.74.2,4.61.31,5.4.31,1.44,0,2.67-.46,3.7-1.41.85-.92,1.27-2.01,1.27-3.29-.09-1.03-.74-1.62-1.78-1.62h-31.4c-1.61,0-2.89.31-3.85.95-1.14.99-1.76,2.05-1.84,3.23.11,1.44.84,3.17,3.73,3.28.3,0,.94-.08,2.99-.74,2.51-.54,6.66-.81,12.35-.81Z"/>
          <path class="cls-12" d="M213.53,271.06c1.04,0,1.68.59,1.78,1.62,0,1.28-.43,2.37-1.27,3.29-1.02.94-2.25,1.41-3.7,1.41-.79,0-2.66-.11-5.4-.31-2.83-.07-6.02-.1-9.43-.1-5.69,0-9.84.27-12.35.81-2.05.66-2.69.74-2.99.74-2.89-.1-3.62-1.84-3.73-3.28.08-1.18.7-2.24,1.84-3.23.95-.65,2.24-.95,3.85-.95h31.4M213.53,269.06h-31.4c-2.05,0-3.68.42-4.97,1.29-.07.05-.13.1-.19.15-1.56,1.36-2.41,2.91-2.52,4.61,0,.09,0,.19,0,.28.23,3.09,2.35,5,5.65,5.12.02,0,.05,0,.07,0,.59,0,1.42-.14,3.5-.8,2.38-.49,6.36-.74,11.84-.74,3.4,0,6.54.03,9.33.1,2.82.21,4.67.31,5.49.31,1.96,0,3.66-.65,5.05-1.94.04-.04.08-.08.12-.12,1.19-1.3,1.8-2.86,1.8-4.65,0-.06,0-.12,0-.18-.18-2.06-1.7-3.44-3.77-3.44h0Z"/>
        </g>
        <g>
          <path class="cls-11" d="M205.91,282.69h-16.47c-3.76,0-4.55,1.8-4.55,3.31,0,1.37.65,3,3.79,3h0c4.06-.54,9.86-.82,17.23-.82,2.89,0,3.32-1.63,3.32-2.6,0-1.09-.43-2.9-3.32-2.9Z"/>
          <path class="cls-12" d="M205.91,282.69c2.89,0,3.32,1.82,3.32,2.9,0,.97-.43,2.6-3.32,2.6-7.36,0-13.16.28-17.23.82h0c-3.14,0-3.79-1.63-3.79-3,0-1.51.79-3.31,4.55-3.31h16.47M205.91,280.69h-16.47c-6.08,0-6.55,4.07-6.55,5.31,0,2.42,1.52,5,5.79,5,.09,0,.18,0,.27-.02,3.99-.53,9.7-.8,16.96-.8,3.93,0,5.32-2.48,5.32-4.6,0-3.62-2.86-4.9-5.32-4.9h0Z"/>
        </g>
        <g>
          <path class="cls-11" d="M208.69,305.65l-.19.03c-1.37.53-2.51.79-3.34.8-2.15-.28-4.05-.41-5.63-.41h-6.9c-1.87,0-3.28-.13-4.18-.39-1.01-.28-2.03-.43-3.02-.43-2.2,0-3.42,1.18-3.41,3.41.54,3.13.81,5.83.81,8.04,0,2.41-.28,5.33-.82,8.75,0,2.22,1.16,3.4,3.5,3.4h.05c1.32-.33,2.46-.54,3.42-.6,1.14-.13,3.85-.2,8.08-.2,3.19,0,6.85.28,10.92.82,1.52,0,3.32-.67,3.32-3.9-.28-2.22-.42-3.88-.42-5.08,0-2.32.1-4.55.31-6.64.13-1.53.33-2.58.51-3.02.31-.4.42-.62.42-.84,0-2.4-1.21-3.73-3.42-3.73ZM204.55,312.57v9.27c0,.26,0,.7-.96.7-2.44-.28-4.64-.42-6.54-.42-2.25,0-4.32.14-6.07.41-1.83,0-1.83-.78-1.83-1,.55-2.65.83-5.53.83-8.55,0-1.01.41-1.42,1.42-1.42,5.59,0,9.9.14,12.87.41.13,0,.29,0,.29.6Z"/>
          <path class="cls-12" d="M185.42,305.24c1,0,2.02.15,3.02.43.9.26,2.31.39,4.18.39h6.9c1.58,0,3.48.14,5.63.41.83,0,1.98-.27,3.34-.8l.19-.03c2.2,0,3.42,1.32,3.42,3.73,0,.22-.11.44-.42.84-.18.44-.38,1.49-.51,3.02-.21,2.09-.31,4.32-.31,6.64,0,1.2.13,2.87.42,5.08,0,3.23-1.8,3.9-3.32,3.9-4.07-.54-7.73-.82-10.92-.82-4.22,0-6.94.07-8.08.2-.95.07-2.09.27-3.42.6h-.05c-2.34,0-3.5-1.18-3.5-3.4.54-3.42.82-6.34.82-8.75,0-2.21-.28-4.91-.81-8.04,0-2.23,1.21-3.41,3.41-3.41M190.98,322.54c1.75-.27,3.82-.41,6.07-.41,1.9,0,4.11.14,6.54.42.96,0,.96-.44.96-.7v-9.27c0-.6-.17-.6-.29-.6-2.97-.28-7.28-.41-12.87-.41-1.01,0-1.42.41-1.42,1.42,0,3.03-.28,5.91-.83,8.55,0,.22,0,1,1.83,1M185.42,303.24c-2.07,0-3.3.8-3.96,1.47-.66.67-1.46,1.89-1.45,3.95,0,.11.01.22.03.33.52,3.03.78,5.62.78,7.7,0,2.28-.27,5.12-.8,8.44-.02.1-.02.21-.02.31,0,3.33,2.11,5.4,5.5,5.4h.05c.16,0,.33-.02.49-.06,1.23-.31,2.26-.49,3.07-.55.03,0,.06,0,.09,0,.73-.09,2.68-.19,7.84-.19,3.08,0,6.67.27,10.65.8.09.01.18.02.27.02,3.92,0,5.32-3.05,5.32-5.9,0-.09,0-.17-.02-.26-.27-2.08-.4-3.7-.4-4.83,0-2.29.1-4.46.3-6.44.11-1.26.24-1.98.32-2.3.34-.49.62-1.05.62-1.77,0-3.48-2.13-5.73-5.42-5.73-.11,0-.23,0-.34.03l-.19.03c-.13.02-.26.06-.38.11-1.37.53-2.17.64-2.52.66-2.17-.27-4.09-.41-5.73-.41h-6.9c-2.2,0-3.22-.2-3.63-.32-1.19-.34-2.4-.51-3.58-.51h0ZM191.38,320.46c.36-2.18.56-4.49.59-6.9,4.36,0,7.91.1,10.58.28v6.57c-2.02-.2-3.87-.3-5.5-.3-2.07,0-3.97.11-5.67.34h0Z"/>
        </g>
        <g>
          <path class="cls-11" d="M271.04,293.61c-2.66.21-4.93.31-6.75.31-2.84,0-6.25-.13-10.14-.37,1.18-4.94,2.6-8.58,4.16-10.78,1.13-1.28,1.68-2.31,1.68-3.13,0-1.51-.74-3.32-4.25-3.32-.66,0-1.35.23-2.06.69-4.42-.89-9.32-1.49-14.6-1.78l2.74-8.34c2.97,0,5.8.11,8.36.3,3.14.63,5.1.93,5.98.93,1.65,0,3.02-.54,4.12-1.65.83-1.05,1.25-2.3,1.25-3.77-.06-.59-.39-1.6-2.08-1.73h-34.59c-1.61,0-2.92.31-3.95.96-1.14.99-1.76,2.05-1.83,3.25.24,2.04,1.52,3.2,3.73,3.36.54,0,1.64-.28,3.3-.84,1.83-.38,4.51-.61,7.98-.7-.08.31-.17.67-.28,1.08-.55,2.35-1.14,4.7-1.74,7-5.63.01-9.19.29-10.87.85-2.44.78-2.95,2.44-2.95,3.7,0,2.14,1.18,3.31,3.32,3.31.13,0,.51,0,2.51-.54,1.47-.43,3.57-.72,6.23-.87-.12.44-.23.85-.3,1.23-1.08,3.69-2.21,7.31-3.38,10.77-3.24.28-6.83.68-10.62,1.2-2.09,0-3.79.8-4.99,2.29-1.08.93-1.63,2.1-1.63,3.5s.65,2.9,3.73,2.9l.22-.05c5.2-2.3,9.17-3.64,11.79-3.98,4.31-.47,8.79-.72,13.32-.72,4.86,0,9.33.34,13.29,1.02,3.7.67,7.1,1.9,10.12,3.64,2.03,1.16,3.74,1.72,5.21,1.72.96,0,1.98-.82,3.13-2.51,1.49-2.27,2.25-4.45,2.25-6.47,0-1.65-.46-2.49-1.41-2.49ZM250.77,282.36c-.97,3.32-1.8,6.92-2.47,10.71-3.47-.19-6.64-.28-9.44-.28-1.58,0-3.42.05-5.63.16l3.85-11.55c5.99.01,10.47.28,13.35.82.25.03.33.09.34.14Z"/>
          <path class="cls-12" d="M259.45,260.97c1.69.13,2.02,1.14,2.08,1.73,0,1.47-.42,2.72-1.25,3.77-1.1,1.11-2.47,1.65-4.12,1.65-.88,0-2.84-.31-5.98-.93-2.56-.19-5.39-.29-8.36-.3l-2.74,8.34c5.29.29,10.19.89,14.6,1.78.71-.46,1.4-.69,2.06-.69,3.51,0,4.25,1.81,4.25,3.32,0,.83-.55,1.85-1.68,3.13-1.56,2.2-2.97,5.84-4.16,10.78,3.89.25,7.3.37,10.14.37,1.82,0,4.09-.1,6.75-.31.95,0,1.41.84,1.41,2.49,0,2.02-.75,4.19-2.25,6.47-1.16,1.69-2.18,2.51-3.13,2.51-1.47,0-3.18-.56-5.21-1.72-3.02-1.75-6.42-2.97-10.12-3.64-3.95-.68-8.43-1.02-13.29-1.02-4.53,0-9.02.24-13.32.72-2.61.34-6.59,1.68-11.79,3.98l-.22.05c-3.08,0-3.73-1.58-3.73-2.9,0-1.39.54-2.57,1.63-3.5,1.2-1.5,2.9-2.29,4.99-2.29,3.8-.52,7.38-.93,10.62-1.2,1.17-3.45,2.3-7.07,3.38-10.77.08-.38.18-.8.3-1.23-2.66.15-4.76.44-6.23.87-2,.54-2.39.54-2.51.54-2.14,0-3.32-1.18-3.32-3.31,0-1.26.51-2.92,2.95-3.7,1.68-.56,5.24-.84,10.87-.85.6-2.3,1.19-4.65,1.74-7,.11-.41.2-.77.28-1.08-3.48.09-6.16.32-7.98.7-1.66.56-2.76.84-3.3.84-2.21-.16-3.49-1.32-3.73-3.36.08-1.2.7-2.26,1.83-3.25,1.04-.65,2.35-.96,3.95-.96h34.59M233.22,292.95c2.21-.11,4.06-.16,5.63-.16,2.8,0,5.97.1,9.44.28.67-3.8,1.5-7.39,2.47-10.71-.02-.05-.09-.1-.34-.14-2.87-.53-7.36-.8-13.35-.82l-3.85,11.55M259.45,258.97h-34.59c-2.02,0-3.66.41-5.01,1.26-.09.06-.17.12-.25.19-1.56,1.36-2.41,2.92-2.52,4.64,0,.12,0,.24.01.36.36,3.02,2.39,4.88,5.57,5.11.05,0,.1,0,.14,0,.55,0,1.44-.11,3.82-.9,1.21-.24,2.85-.42,4.89-.53-.32,1.32-.65,2.65-.99,3.99-5.02.06-8.21.36-9.95.94-2.74.87-4.32,2.92-4.32,5.6,0,3.23,2.09,5.31,5.32,5.31.37,0,.95-.05,3.03-.6.81-.23,1.82-.42,3.03-.57-.83,2.77-1.66,5.41-2.48,7.89-2.88.27-6,.63-9.29,1.08-2.56.04-4.73,1.03-6.29,2.9-1.43,1.29-2.18,2.97-2.18,4.89,0,2.37,1.5,4.9,5.73,4.9.14,0,.28-.01.42-.04l.22-.05c.14-.03.27-.07.39-.13,6.25-2.76,9.56-3.6,11.24-3.82,4.21-.46,8.62-.7,13.06-.7,4.75,0,9.11.33,12.95.99,3.46.63,6.65,1.78,9.46,3.4,2.35,1.34,4.38,1.99,6.21,1.99,2.22,0,3.79-1.93,4.79-3.38,1.73-2.64,2.59-5.18,2.59-7.6,0-4.17-2.61-4.49-3.41-4.49-.05,0-.1,0-.15,0-2.62.2-4.84.3-6.6.3-2.19,0-4.74-.08-7.59-.23,1.17-4.2,2.35-6.48,3.19-7.69,1.44-1.65,2.11-3.04,2.11-4.37,0-3.92-3.23-5.32-6.25-5.32-.8,0-1.6.2-2.39.58-3.58-.69-7.46-1.19-11.56-1.5l1.48-4.5c2.32.03,4.55.12,6.65.28,4.22.84,5.56.95,6.25.95,2.21,0,4.07-.75,5.54-2.24.05-.05.1-.11.15-.17,1.11-1.41,1.68-3.1,1.68-5.01,0-.07,0-.13,0-.2-.16-1.57-1.27-3.33-3.92-3.52-.05,0-.1,0-.15,0h0ZM236.04,290.83l2.48-7.42c4.05.04,7.31.21,9.74.5-.6,2.25-1.14,4.62-1.61,7.07-2.83-.13-5.45-.2-7.79-.2-.85,0-1.78.02-2.82.05h0Z"/>
        </g>
        <g>
          <path class="cls-11" d="M205.91,293.61h-16.47c-3.76,0-4.55,1.8-4.55,3.31,0,1.32.65,2.9,3.78,2.9h0c4.06-.47,9.86-.72,17.23-.72,2.89,0,3.32-1.63,3.32-2.6,0-1.09-.43-2.9-3.32-2.9Z"/>
          <path class="cls-12" d="M205.91,293.61c2.89,0,3.32,1.82,3.32,2.9,0,.97-.43,2.6-3.32,2.6-7.37,0-13.17.24-17.23.72h0c-3.13,0-3.78-1.58-3.78-2.9,0-1.51.79-3.31,4.55-3.31h16.47M205.91,291.61h-16.47c-6.08,0-6.55,4.07-6.55,5.31,0,2.37,1.52,4.9,5.78,4.9.08,0,.16,0,.24-.01,4-.47,9.73-.7,17-.7,3.93,0,5.32-2.48,5.32-4.6,0-3.62-2.86-4.9-5.32-4.9h0Z"/>
        </g>
        <g>
          <path class="cls-11" d="M255.02,304.83l-.18.03c-1.44.52-2.62.79-3.48.79-3.17-.27-5.96-.41-8.28-.41h-10.2c-1.85,0-3.26-.13-4.17-.39-1-.29-2.05-.44-3.13-.44-2.14,0-3.32,1.18-3.31,3.4.54,3.46.82,6.48.82,8.98,0,2.64-.28,5.79-.83,9.47,0,2.13,1.17,3.31,3.38,3.31h.02c1.66-.27,3.02-.44,4.19-.51,1.38-.13,4.55-.2,9.42-.2,4.4,0,9.41.24,14.93.72,2.14,0,3.32-1.32,3.32-3.79-.28-2.41-.41-4.37-.41-5.81,0-2.61.1-5.06.31-7.27.13-1.58.35-2.69.69-3.35.2-.52.23-.68.23-.81,0-3.08-1.8-3.73-3.32-3.73ZM250.78,311.75v10.91c0,.28,0,.7-.96.7-3.86-.27-7.41-.41-10.55-.41s-5.74.14-8.03.41c-1.83,0-1.83-.78-1.84-1.02.55-3.17.84-6.59.84-10.18,0-1.01.41-1.42,1.42-1.42,8.17,0,14.53.14,18.94.41.16,0,.18.37.18.59Z"/>
          <path class="cls-12" d="M225.57,304.42c1.08,0,2.14.15,3.13.44.91.26,2.32.39,4.17.39h10.2c2.32,0,5.11.14,8.28.41.85,0,2.04-.26,3.48-.79l.18-.03c1.52,0,3.32.65,3.32,3.73,0,.13-.03.3-.23.81-.33.66-.56,1.77-.69,3.35-.21,2.21-.31,4.65-.31,7.27,0,1.44.13,3.39.41,5.81,0,2.46-1.18,3.79-3.32,3.79-5.52-.48-10.53-.72-14.93-.72-4.87,0-8.04.07-9.42.2-1.17.07-2.53.24-4.19.51h-.02c-2.21,0-3.38-1.17-3.38-3.31.55-3.68.83-6.84.83-9.47s-.28-5.52-.82-8.98c0-2.22,1.17-3.4,3.31-3.4M231.24,323.36c2.29-.27,5.01-.41,8.03-.41s6.69.14,10.55.41c.96,0,.96-.42.96-.7v-10.91c0-.22-.03-.59-.18-.59-4.42-.27-10.77-.41-18.94-.41-1.01,0-1.42.41-1.42,1.42,0,3.59-.28,7.01-.84,10.18,0,.24,0,1.02,1.84,1.02M225.57,302.42c-2.01,0-3.21.78-3.86,1.44-.66.67-1.46,1.9-1.45,3.97,0,.1,0,.2.02.3.53,3.36.8,6.27.8,8.67,0,2.52-.27,5.61-.81,9.17-.01.1-.02.2-.02.3,0,3.27,2.06,5.31,5.38,5.31.11,0,.23,0,.34-.03,1.6-.26,2.91-.42,3.99-.49.02,0,.05,0,.07,0,.9-.09,3.23-.19,9.22-.19,4.32,0,9.29.24,14.76.71.06,0,.11,0,.17,0,3.28,0,5.32-2.22,5.32-5.79,0-.08,0-.15-.01-.23-.26-2.3-.4-4.18-.4-5.58,0-2.59.1-4.97.3-7.08.15-1.86.4-2.48.48-2.63.03-.06.06-.12.08-.18.24-.62.37-1.05.37-1.54,0-4.22-2.75-5.73-5.32-5.73-.12,0-.24.01-.36.03l-.18.03c-.11.02-.22.05-.32.09-1.5.54-2.33.65-2.72.67-3.18-.27-5.99-.41-8.35-.41h-10.2c-2.09,0-3.12-.17-3.63-.31-1.17-.34-2.41-.51-3.68-.51h0ZM232.24,312.05h0,0ZM231.59,321.31c.4-2.72.62-5.6.64-8.57,6.85,0,12.4.11,16.55.31v8.23c-3.46-.22-6.65-.34-9.51-.34s-5.44.12-7.68.36h0Z"/>
        </g>
      </g>
      <g class="cls-8">
        <g>
          <path class="cls-11" d="M218.61,374.32l.47.03v-.44s0,0,0,0h0s.16.41.16.41c.17-.05,1.35-.27,7.38-1.23,4.85-.72,9.36-1.09,13.45-1.09h.05c-.97.64-2.14,1.53-3.55,2.7-2.99,2.5-3.38,3.31-3.38,3.78,0,.54.28,1.45,2.18,1.45.74,0,2.48-.45,9.02-4.39,6.54-4,7.38-5.31,7.38-6.01,0-1.24-.61-2.72-3.54-2.72-8.68,0-16.45.28-23.1.85-2.95.23-4.71.43-5.44.62-1.91.63-2.87,1.93-2.87,3.87,0,1.6.98,2.07,1.8,2.18Z"/>
          <path class="cls-12" d="M248.22,366.81c2.93,0,3.54,1.48,3.54,2.72,0,.7-.84,2.01-7.38,6.01-6.54,3.93-8.28,4.39-9.02,4.39-1.9,0-2.18-.91-2.18-1.45,0-.47.4-1.28,3.38-3.78,1.41-1.17,2.59-2.06,3.55-2.7h-.05c-4.09,0-8.61.37-13.45,1.09-6.03.96-7.21,1.18-7.38,1.23l-.16-.41h0s-.02.01,0,.01v.44l-.47-.03c-.82-.11-1.8-.58-1.8-2.18,0-1.94.97-3.24,2.87-3.87.73-.19,2.49-.39,5.44-.62,6.65-.56,14.43-.85,23.1-.85M248.22,364.81c-8.74,0-16.57.29-23.27.85-3.99.31-5.16.52-5.77.67-.04.01-.08.02-.12.04-2.74.9-4.25,2.95-4.25,5.77,0,2.27,1.35,3.86,3.53,4.16.05,0,.09.01.14.01l.47.03s.09,0,.13,0c.19,0,.38-.03.56-.08.04,0,.08-.02.12-.03.18-.04,1.24-.24,7.18-1.19,2.45-.36,4.83-.64,7.09-.81-2.13,1.9-2.85,3.02-2.85,4.23,0,1.59,1.09,3.45,4.18,3.45,1.11,0,2.89-.36,10.05-4.67,7.1-4.34,8.35-5.95,8.35-7.72,0-2.28-1.46-4.72-5.54-4.72h0Z"/>
        </g>
        <g>
          <path class="cls-11" d="M260.28,399.94c-.33-1-.86-1.5-1.57-1.5-.81,0-2.18.39-4.33,1.22-2.42.93-5.01,1.55-7.71,1.82-4.85.61-9.22.92-12.97.92-8.7,0-12.93-2.23-12.93-6.81,0-.74.33-2.15.97-4.19l.02-.07v-.08c-.13-1.28-1.02-1.42-1.4-1.42-2.87,0-4.33,2.47-4.33,7.36,0,4.33,3.01,7.65,8.94,9.85,4.3,1.53,9.32,2.31,14.91,2.31,7.33,0,11.88-.31,13.92-.96,1.68-.6,3.16-1.97,4.39-4.1.81-1.53,1.82-3.47,2.08-4.08l.06-.14-.05-.14Z"/>
          <path class="cls-12" d="M220.35,389.83c.38,0,1.27.14,1.39,1.42v.08s-.02.07-.02.07c-.64,2.04-.97,3.45-.97,4.19,0,4.59,4.23,6.81,12.93,6.81,3.75,0,8.12-.31,12.97-.92,2.7-.27,5.29-.89,7.71-1.82,2.15-.83,3.52-1.22,4.33-1.22.71,0,1.25.5,1.57,1.5l.05.14-.06.14c-.26.6-1.28,2.55-2.08,4.08-1.23,2.13-2.71,3.5-4.39,4.1-2.04.65-6.59.96-13.92.96-5.6,0-10.61-.78-14.91-2.31-5.93-2.2-8.94-5.52-8.94-9.85,0-4.88,1.46-7.36,4.33-7.36M220.35,387.83c-2.37,0-6.33,1.22-6.33,9.36,0,6.55,5.57,9.99,10.25,11.73,4.55,1.62,9.79,2.44,15.61,2.44,7.65,0,12.27-.34,14.53-1.06.02,0,.04-.01.06-.02,2.15-.76,3.98-2.44,5.45-4.99.01-.02.02-.04.04-.07.82-1.55,1.85-3.53,2.15-4.21,0-.02.01-.03.02-.05l.06-.14c.18-.45.2-.95.04-1.41l-.05-.14c-.84-2.56-2.7-2.84-3.46-2.84-1.09,0-2.6.4-5.05,1.35-2.26.87-4.68,1.44-7.19,1.7-4.81.61-9.09.91-12.77.91-10.93,0-10.93-3.62-10.93-4.81,0-.19.06-1,.87-3.59v-.04c.1-.27.13-.56.1-.84v-.08c-.21-2.21-1.85-3.21-3.39-3.21h0Z"/>
        </g>
        <g>
          <path class="cls-11" d="M209.17,395.82c-.73,0-1.35.42-1.82,1.25-4.26,6.88-5.42,7.63-5.64,7.69-.58,0-2.44-1.16-2.44-16.09,0-2.59.59-5.9,1.76-9.86.96-3.7,2.17-6.93,3.59-9.62,1.43-2.76,1.62-3.47,1.62-3.81,0-2-1.3-3.05-3.75-3.05-1.83,0-3.23.79-4.18,2.35-1.26,2.11-2.53,6.18-3.78,12.1-1.17,5.47-1.77,9.69-1.77,12.56,0,7.26.7,12.95,2.08,16.9,1.52,4.81,3.38,7.15,5.7,7.15,1.88,0,4-2.22,6.65-7.01,1.51-3,2.77-5.97,3.74-8.82l.03-.08v-.08c-.14-1.38-1.18-1.59-1.8-1.59Z"/>
          <path class="cls-12" d="M202.5,362.34c2.45,0,3.75,1.05,3.75,3.05,0,.33-.19,1.05-1.62,3.81-1.42,2.68-2.63,5.92-3.59,9.62-1.17,3.95-1.76,7.27-1.76,9.86,0,14.93,1.86,16.09,2.44,16.09.22-.07,1.37-.82,5.64-7.69.47-.82,1.09-1.25,1.82-1.25.61,0,1.66.21,1.79,1.59v.08s-.02.08-.02.08c-.97,2.86-2.24,5.82-3.74,8.82-2.65,4.79-4.77,7.01-6.65,7.01-2.32,0-4.18-2.34-5.7-7.15-1.37-3.95-2.08-9.64-2.08-16.9,0-2.87.6-7.09,1.77-12.56,1.25-5.91,2.51-9.98,3.78-12.1.95-1.56,2.35-2.35,4.18-2.35M202.5,360.34c-2.54,0-4.57,1.14-5.89,3.31-1.4,2.35-2.72,6.51-4.03,12.73-1.2,5.61-1.82,9.98-1.82,12.97,0,7.46.73,13.36,2.18,17.53.68,2.14,2.71,8.52,7.6,8.52,2.77,0,5.28-2.41,8.4-8.04.01-.02.03-.05.04-.07,1.54-3.07,2.83-6.1,3.83-9.01h0c.13-.32.18-.65.15-.98v-.08c-.2-2.06-1.68-3.39-3.79-3.39-.84,0-2.42.29-3.54,2.22-1.63,2.63-2.76,4.29-3.53,5.33-.39-1.85-.83-5.52-.83-12.7,0-2.4.56-5.52,1.67-9.29,0-.02.01-.04.02-.06.91-3.53,2.06-6.62,3.42-9.18,1.58-3.05,1.85-3.95,1.85-4.74,0-2.44-1.51-5.05-5.75-5.05h0Z"/>
        </g>
      </g>
      <g class="cls-5">
        <path class="cls-11" d="M100.46,228.23c-.25,0-.58,0-7.89,3.7-4.63,2.32-8.71,3.49-12.13,3.49-4.1,0-4.58-2.07-4.58-3.62,0-2.23,1.19-6.88,3.52-13.82,2.53-7.03,3.77-11.44,3.77-13.49s-1.01-3.86-2.96-5.28c-1.75-1.41-3.66-2.12-5.68-2.12-3.84,0-8.44,1.67-13.67,4.96-3.89,2.3-7.53,5.04-10.84,8.16v-2.3c1.12-1.47,2.11-2.81,2.98-4.1,1.48-2.14,2.2-3.77,2.2-4.98,0-1.41-.65-3.09-3.76-3.09h-.97c-.05.02-.11.03-.16.04.02-8.63.49-9.94.64-10.13l.12-.14v-.19c0-2.27-1.2-3.47-3.46-3.47s-3.43,1.96-3.57,5.85l-.18,8.67c-5.12.67-8.57,1.2-10.23,1.58-3.45.62-5.21,2.27-5.21,4.9,0,.78.3,2.11,2.37,2.32h.12s.11-.03.11-.03c3.03-1.15,7.31-2.14,12.7-2.96-.24,4.74-.35,6.87-.35,7.18v.96c-9.37,10.13-9.47,10.31-9.46,10.31-6.89,7.94-7.69,10.39-7.69,11.54,0,3.34,1.94,4.04,3.56,4.04.97,0,1.99-.9,3.2-2.82,2.32-3.68,5.74-8.2,10.17-13.44-.29,15.01-.24,23.09.15,24.73.73,2.18,1.96,2.64,2.87,2.64,3.35,0,4.05-1.94,4.05-3.56,0-.94-.06-2.34-.2-4.14-.06-1.91-.09-3.28-.09-4.11v-18.48c9.12-9.53,17.12-14.36,23.74-14.36.66,0,1.38.23,2.13.69.69.42,1.01.94,1.01,1.59,0,2.09-1.28,6.29-3.8,12.46-2.67,6.51-3.97,11.05-3.97,13.89,0,7.77,5.1,11.71,15.17,11.71,8.72,0,13.85-1.85,15.68-5.66,1.33-2.9,1.96-5.04,1.96-6.53,0-1.73-.46-2.61-1.36-2.61Z"/>
        <path class="cls-12" d="M47.57,181.86c2.26,0,3.46,1.2,3.46,3.47v.19l-.12.14c-.15.19-.62,1.5-.64,10.13.05-.01.11-.02.16-.03h.97c3.1-.01,3.76,1.67,3.76,3.08,0,1.2-.72,2.83-2.2,4.98-.87,1.29-1.86,2.64-2.98,4.1v2.3c3.31-3.12,6.95-5.87,10.84-8.16,5.22-3.29,9.82-4.96,13.67-4.96,2.02,0,3.93.71,5.68,2.12,1.96,1.42,2.96,3.2,2.96,5.28s-1.23,6.46-3.77,13.49c-2.33,6.94-3.52,11.59-3.52,13.82,0,1.56.48,3.62,4.58,3.62,3.42,0,7.5-1.18,12.13-3.49,7.31-3.7,7.64-3.7,7.89-3.7.9,0,1.36.88,1.36,2.61,0,1.49-.64,3.63-1.96,6.53-1.83,3.81-6.96,5.66-15.68,5.66-10.07,0-15.17-3.94-15.17-11.71,0-2.84,1.29-7.38,3.97-13.89,2.52-6.17,3.8-10.36,3.8-12.46,0-.65-.33-1.17-1.01-1.59-.75-.46-1.47-.69-2.13-.69-6.63,0-14.62,4.83-23.74,14.36v18.48c0,.83.03,2.2.09,4.11.13,1.8.2,3.2.2,4.14,0,1.63-.7,3.56-4.05,3.56-.91,0-2.14-.46-2.87-2.64-.39-1.64-.44-9.72-.15-24.73-4.43,5.24-7.84,9.76-10.17,13.44-1.21,1.92-2.22,2.82-3.2,2.82-1.62,0-3.56-.7-3.56-4.04,0-1.15.8-3.6,7.69-11.54-.02,0,.09-.18,9.46-10.31v-.96c0-.31.11-2.44.35-7.18-5.4.81-9.67,1.81-12.7,2.96l-.11.04h-.12c-2.07-.22-2.37-1.55-2.37-2.33,0-2.63,1.75-4.28,5.21-4.9,1.66-.37,5.11-.9,10.23-1.58l.18-8.67c.14-3.89,1.35-5.85,3.57-5.85M47.57,179.86c-1.98,0-5.33,1.01-5.57,7.78l-.14,6.99c-4.22.57-7.13,1.03-8.66,1.37-5.93,1.09-6.81,4.76-6.81,6.86,0,2.36,1.64,4.05,4.17,4.31h.11c.07.02.13.02.2.02.23,0,.46-.04.67-.12l.11-.04c2.47-.94,5.79-1.76,9.9-2.47-.18,3.5-.23,4.53-.23,4.81v.17c-3.64,3.94-6.21,6.73-7.64,8.3-.59.65-1.02,1.12-1.32,1.5h-.01c-7.19,8.27-8.18,11.06-8.18,12.84,0,2.92,1.46,6.04,5.56,6.04,2.24,0,3.79-2.01,4.89-3.75,1.6-2.53,3.74-5.48,6.38-8.8-.23,14.95.02,18.3.3,19.49.01.06.03.11.05.17,1.2,3.62,3.73,4.01,4.77,4.01,2.92,0,6.05-1.46,6.05-5.56,0-1.02-.07-2.48-.2-4.24-.06-1.86-.09-3.2-.09-4v-17.68c8.49-8.74,15.81-13.17,21.74-13.17.16,0,.52.05,1.09.4.02.01.04.02.05.03-.04,1.15-.61,4.12-3.65,11.55-2.81,6.83-4.12,11.49-4.12,14.65,0,6.25,2.98,13.71,17.17,13.71,9.57,0,15.28-2.22,17.48-6.79,1.48-3.24,2.16-5.58,2.16-7.4,0-4.28-2.58-4.61-3.36-4.61s-1.06,0-8.79,3.91c-4.35,2.17-8.13,3.28-11.23,3.28-2.58,0-2.58-.79-2.58-1.62,0-1.38.59-4.79,3.41-13.18,3.47-9.61,3.87-12.67,3.87-14.12,0-2.7-1.3-5.07-3.75-6.87-2.11-1.68-4.43-2.53-6.9-2.53-4.22,0-9.16,1.77-14.71,5.25-1.31.77-2.59,1.59-3.84,2.46.82-1.52,1.22-2.82,1.22-3.97,0-2.28-1.3-4.71-4.87-5.05.06-4.97.29-6.64.39-7.13.23-.33.36-.73.36-1.14v-.19c0-3.37-2.09-5.47-5.46-5.47h0Z"/>
      </g>
      <g class="cls-6">
        <path class="cls-11" d="M83.5,291.14c-3.77-2.4-8.21-3.62-13.2-3.62-6.11,0-12.03,1-17.64,2.98,7.38-6.49,15.89-13.4,25.32-20.57,1.97-1.47,2.88-2.64,2.88-3.66,0-1.73-1.49-2.6-4.43-2.6-11.75,0-21.2.1-28.09.28-4.13.14-6.23,1.31-6.23,3.47,0,1.21.31,2.12.92,2.71.55.54,1.37.84,2.37.76l.21-.05c.65-.32,2.94-.78,10.17-1.1,4.62-.38,8.41-.57,11.27-.57.39,0,.73.03,1.02.08-.24.21-.47.4-.68.58l-31.14,26.64c-2.25,1.97-3.34,3.6-3.34,4.97,0,2.46,1.27,3.75,3.66,3.75.49,0,1.36-.28,3.88-2.43,3.51-3.2,7.99-5.77,13.33-7.65,5.16-1.7,10.27-2.57,15.17-2.57,3.79,0,6.92.78,9.3,2.31,2.75,1.9,4.09,4.49,4.09,7.93,0,2.99-1.05,5.65-3.13,7.9-1.77,1.95-4.15,3.44-7.08,4.43-4.27-6.93-10.07-10.44-17.27-10.44-6.25,0-9.41,2.65-9.41,7.88,0,3.38,2,6.11,5.92,8.11,3.26,1.69,6.72,2.55,10.29,2.55,7.34,0,13.68-1.5,18.83-4.47,6.41-3.59,9.65-8.96,9.65-15.96,0-4.89-2.24-8.8-6.66-11.63ZM54.88,309.3c3.59,0,7.13,2.55,10.52,7.59-1.96.15-3.17.22-3.72.22-7.24,0-10.9-1.54-10.9-4.58,0-1.39.43-3.24,4.1-3.24Z"/>
        <path class="cls-12" d="M76.44,263.66c2.94,0,4.43.88,4.43,2.6,0,1.02-.91,2.18-2.88,3.66-9.43,7.17-17.93,14.09-25.32,20.57,5.61-1.98,11.52-2.98,17.64-2.98,4.99,0,9.43,1.22,13.2,3.62,4.42,2.83,6.66,6.75,6.66,11.63,0,6.99-3.24,12.36-9.65,15.96-5.15,2.97-11.49,4.47-18.83,4.47-3.57,0-7.03-.86-10.29-2.55-3.92-2-5.92-4.73-5.92-8.11,0-5.22,3.17-7.88,9.41-7.88,7.2,0,13.01,3.51,17.27,10.44,2.93-.99,5.31-2.48,7.08-4.43,2.07-2.26,3.13-4.92,3.13-7.9,0-3.43-1.34-6.03-4.09-7.93-2.39-1.53-5.51-2.31-9.3-2.31-4.9,0-10.01.86-15.17,2.57-5.33,1.88-9.82,4.46-13.33,7.65-2.52,2.15-3.39,2.43-3.88,2.43-2.39,0-3.66-1.3-3.66-3.75,0-1.37,1.09-3,3.34-4.97l31.14-26.64c.21-.18.44-.37.68-.58-.29-.05-.63-.08-1.02-.08-2.85,0-6.64.19-11.27.57-7.23.32-9.52.77-10.17,1.1l-.21.05c-.11,0-.21.01-.31.01-.86,0-1.56-.29-2.06-.77-.61-.59-.92-1.5-.92-2.71,0-2.16,2.1-3.33,6.23-3.47,6.89-.19,16.34-.28,28.09-.28M61.68,317.12c.55,0,1.76-.07,3.72-.22-3.38-5.04-6.92-7.59-10.52-7.59s-4.1,1.85-4.1,3.24c0,3.04,3.66,4.58,10.9,4.58M76.44,261.66c-11.7,0-21.17.1-28.15.29-3.06.1-8.18.95-8.18,5.47,0,1.77.51,3.16,1.53,4.15.88.86,2.1,1.34,3.45,1.34.15,0,.31,0,.47-.02.12,0,.23-.03.35-.06l.21-.05c.14-.04.27-.08.39-.15.19-.08,1.68-.55,9.36-.89.03,0,.05,0,.08,0,2.46-.2,4.69-.35,6.66-.45l-27.65,23.66c-2.76,2.42-4.04,4.48-4.04,6.49,0,3.55,2.17,5.75,5.66,5.75,1.1,0,2.35-.49,5.18-2.91.02-.01.03-.03.05-.04,3.31-3.02,7.57-5.46,12.64-7.25,4.92-1.62,9.81-2.45,14.51-2.45,3.38,0,6.13.66,8.19,1.97,2.18,1.52,3.2,3.51,3.2,6.26,0,2.47-.87,4.67-2.6,6.55-1.25,1.38-2.86,2.5-4.81,3.34-4.56-6.64-10.63-10-18.07-10-9.93,0-11.41,6.19-11.41,9.88,0,2.88,1.22,6.93,7.01,9.89,3.54,1.83,7.31,2.76,11.2,2.76,7.7,0,14.37-1.59,19.83-4.74,7.06-3.96,10.66-9.92,10.66-17.69,0-5.53-2.62-10.14-7.58-13.32-4.1-2.61-8.9-3.94-14.28-3.94-3.3,0-6.56.28-9.75.85,5.7-4.78,11.94-9.75,18.64-14.85,1.7-1.27,3.67-3.03,3.67-5.25,0-1.38-.63-4.6-6.43-4.6h0ZM61.53,315.12c-5.4-.02-8.75-1-8.75-2.58,0-.69,0-1.24,2.1-1.24s4.4,1.28,6.65,3.82h0Z"/>
      </g>
      <path class="cls-12" d="M304.52,334.69c-.28,0-.5-.22-.5-.5V5.6c0-.28.22-.5.5-.5s.5.22.5.5v328.59c0,.28-.22.5-.5.5Z"/>
      <path class="cls-12" d="M309.69,334.69c-.28,0-.5-.22-.5-.5V5.6c0-.28.22-.5.5-.5s.5.22.5.5v328.59c0,.28-.22.5-.5.5Z"/>
      <path class="cls-12" d="M136.78,417.9c-.28,0-.5-.22-.5-.5V88.32c0-.28.22-.5.5-.5s.5.22.5.5v329.08c0,.28-.22.5-.5.5Z"/>
      <path class="cls-12" d="M141.95,417.9c-.28,0-.5-.22-.5-.5V88.32c0-.28.22-.5.5-.5s.5.22.5.5v329.08c0,.28-.22.5-.5.5Z"/>
      <g class="cls-7">
        <g>
          <path class="cls-13" d="M69.38,371.18l.99.19c.7,0,2.03-.27,4-.82,3.34-.52,8.91-.79,16.53-.79,4.62,0,8.9.04,12.68.14,3.73.26,6.15.4,7.16.4,1.99,0,3.6-.66,4.84-1.99,1.08-1.29,1.64-2.79,1.64-4.57-.07-.5-.41-1.68-2.31-1.68h-40.95c1.58-3.95,2.35-6.97,2.35-9.23,0-3.53-1.87-5.39-5.39-5.39-2.45,0-3.79,1.34-3.79,3.76-.25,7.07-2.93,14.31-7.9,21.47-.75.99-1.08,1.64-1.08,2.17,0,1.01.44,2.71,3.38,2.71,1.78,0,3.56-.78,5.4-2.45.74-1.07,1.57-2.39,2.46-3.91Z"/>
          <path class="cls-11" d="M70.91,347.43c3.53,0,5.39,1.87,5.39,5.39,0,2.26-.76,5.28-2.35,9.23h40.95c1.9,0,2.25,1.18,2.31,1.68,0,1.77-.56,3.28-1.64,4.57-1.23,1.33-2.85,1.99-4.84,1.99-1.02,0-3.43-.14-7.16-.4-3.79-.09-8.07-.14-12.68-.14-7.62,0-13.19.27-16.53.79-1.96.55-3.3.82-4,.82l-.99-.19c-.88,1.52-1.71,2.84-2.46,3.91-1.84,1.66-3.62,2.45-5.4,2.45-2.95,0-3.38-1.7-3.38-2.71,0-.53.33-1.18,1.08-2.17,4.98-7.16,7.65-14.39,7.9-21.47,0-2.41,1.34-3.76,3.79-3.76M70.91,346.43c-3,0-4.79,1.78-4.79,4.76-.24,6.83-2.84,13.87-7.72,20.9-.89,1.16-1.26,1.97-1.26,2.74,0,.87.32,3.71,4.38,3.71,2.07,0,4.06-.88,6.07-2.7.06-.05.11-.11.15-.17.67-.97,1.39-2.1,2.14-3.37l.3.06c.06.01.12.02.18.02.8,0,2.14-.27,4.21-.84,3.3-.51,8.79-.77,16.32-.77,4.71,0,8.97.05,12.66.14,3.8.27,6.17.4,7.19.4,2.27,0,4.15-.78,5.57-2.31.01-.01.02-.03.03-.04,1.24-1.48,1.87-3.23,1.87-5.21,0-.04,0-.09,0-.13-.16-1.23-1.11-2.55-3.31-2.55h-39.49c1.27-3.4,1.89-6.1,1.89-8.23,0-4.06-2.33-6.39-6.39-6.39h0Z"/>
        </g>
        <g>
          <path class="cls-13" d="M44.35,370.68c4.12.82,6.62,1.22,7.64,1.22,2.15,0,3.95-.7,5.4-2.16,1.06-1.46,1.6-3.09,1.6-4.9-.12-1.44-1.11-2.25-2.72-2.25h-18.02c.27-3.72.75-7.87,1.42-12.44,0-3.53-1.87-5.39-5.39-5.39-2.52,0-5.52,1.03-5.51,6.05.67,3.75,1.14,7.71,1.42,11.79H12.29c-2.1,0-3.8.4-5.15,1.24-1.48,1.29-2.29,2.67-2.39,4.2.15,1.88,1.11,4.14,4.86,4.27.7,0,2.09-.32,4.15-.95,2.78-.51,6.91-.86,12.27-1.04-.62,9.21-1.87,17.02-3.68,23.25-2.29,8.91-4.97,15.83-7.96,20.59-3.88,6.16-7.91,10.69-12.14,13.58-.83.93-1.26,2.17-1.24,3.79.21,1.39.7,2.58,1.48,3.55,2.58,3.22,6.57,3.12,10.94-1.27,3.36-3.09,6.76-7.94,10.1-14.43,3.13-6.64,5.82-15.18,7.97-25.42.07-.47.16-.94.27-1.39.58-.15,1.3-.44,2.14-.85,3.07-.7,6.17-1.05,9.23-1.05h2.15c.25,0,.77,0,.77,1.45s-.31,5.71-.94,12.92c-1.4,11.25-3.1,18.07-5.09,20.32-1.57,2.06-5.28,3.32-11.11,3.76-1.75.33-2.72,1.52-2.72,3.37,0,1.47.53,3.12,1.64,5,1.56,1.95,3.55,2.95,5.91,2.95,4.65,0,8.66-1.7,11.9-5.03,3.81-3.73,6.16-11.25,7.18-22.98.61-8.27,1.82-16.63,3.61-25,0-3.62-1.87-5.53-5.39-5.53l-.2.03c-2.35.69-3.9,1.05-4.63,1.05h-8.32c-1.92,0-3.42.05-4.56.16.54-4.23.85-8.55.96-12.85,3.54.02,6.93.15,10.04.39Z"/>
          <path class="cls-11" d="M34.28,344.75c3.53,0,5.39,1.87,5.39,5.39-.67,4.57-1.15,8.73-1.42,12.44h18.02c1.6,0,2.6.82,2.72,2.25,0,1.81-.55,3.43-1.6,4.9-1.45,1.46-3.25,2.16-5.4,2.16-1.03,0-3.53-.4-7.64-1.22-3.11-.24-6.51-.38-10.04-.39-.11,4.31-.43,8.62-.96,12.85,1.15-.11,2.64-.16,4.56-.16h8.32c.73,0,2.28-.35,4.63-1.05l.2-.03c3.53,0,5.39,1.91,5.39,5.53-1.79,8.37-3,16.73-3.61,25-1.03,11.73-3.37,19.25-7.18,22.98-3.24,3.33-7.25,5.03-11.9,5.03-2.36,0-4.34-.99-5.91-2.95-1.1-1.88-1.64-3.53-1.64-5,0-1.84.97-3.04,2.72-3.37,5.83-.44,9.54-1.7,11.11-3.76,1.99-2.25,3.69-9.07,5.09-20.32.63-7.22.94-11.46.94-12.92s-.52-1.45-.77-1.45h-2.15c-3.07,0-6.17.35-9.23,1.05-.84.4-1.56.69-2.14.85-.11.45-.21.92-.27,1.39-2.15,10.24-4.84,18.78-7.97,25.42-3.34,6.49-6.74,11.34-10.1,14.43-2.38,2.39-4.65,3.51-6.64,3.51-1.66,0-3.13-.78-4.3-2.24-.79-.97-1.28-2.17-1.48-3.55-.01-1.62.41-2.86,1.24-3.79,4.22-2.89,8.26-7.42,12.14-13.58,2.99-4.76,5.67-11.69,7.96-20.59,1.81-6.23,3.06-14.04,3.68-23.25-5.36.18-9.49.53-12.27,1.04-2.06.63-3.45.95-4.15.95-3.74-.13-4.7-2.39-4.86-4.27.1-1.53.91-2.91,2.39-4.2,1.35-.85,3.06-1.24,5.15-1.24h17.9c-.28-4.08-.75-8.04-1.42-11.79-.01-5.02,2.99-6.05,5.51-6.05M34.28,343.75c-2,0-3.58.57-4.7,1.7-1.21,1.21-1.82,3.01-1.81,5.35,0,.06,0,.12.02.17.59,3.33,1.04,6.89,1.33,10.61H12.29c-2.32,0-4.18.46-5.68,1.4-.04.03-.09.06-.13.09-1.7,1.48-2.62,3.12-2.73,4.89,0,.05,0,.1,0,.15.15,1.87,1.11,5.03,5.82,5.19h0c.55,0,1.56-.1,4.41-.98,2.54-.46,6.23-.78,10.96-.97-.64,8.61-1.83,15.99-3.56,21.93-2.28,8.84-4.91,15.67-7.84,20.34-3.79,6.03-7.78,10.5-11.86,13.29-.07.05-.13.1-.18.16C.49,428.21-.01,429.71,0,431.54c0,.05,0,.09.01.14.24,1.58.81,2.93,1.7,4.03,1.37,1.71,3.12,2.61,5.08,2.61,2.33,0,4.87-1.32,7.35-3.8,3.42-3.14,6.88-8.09,10.28-14.68,3.2-6.77,5.9-15.4,8.06-25.67,0-.02,0-.05.01-.07.03-.23.08-.48.13-.74.47-.16,1.01-.39,1.62-.68,2.96-.67,5.96-1,8.9-1h1.9c.01.1.03.25.03.45,0,1.45-.31,5.77-.93,12.84-1.7,13.72-3.57,18.31-4.84,19.75-.02.02-.03.04-.05.06-.96,1.25-3.53,2.86-10.39,3.37-.04,0-.07,0-.11.01-2.21.41-3.53,2.04-3.53,4.35,0,1.67.58,3.47,1.78,5.51.02.04.05.08.08.12,1.76,2.21,4.01,3.32,6.69,3.32,4.93,0,9.17-1.79,12.61-5.33,3.97-3.89,6.42-11.61,7.46-23.59.61-8.19,1.81-16.55,3.59-24.88.01-.07.02-.14.02-.21,0-4.15-2.33-6.53-6.39-6.53-.05,0-.09,0-.14,0l-.2.03s-.1.02-.15.03c-2.97.88-4,1.01-4.35,1.01h-8.32c-1.33,0-2.46.03-3.42.08.41-3.51.67-7.12.79-10.76,3.1.03,6.1.16,8.94.38,4.2.84,6.68,1.22,7.78,1.22,2.44,0,4.5-.83,6.11-2.46.04-.04.07-.08.1-.12,1.19-1.65,1.79-3.49,1.79-5.48,0-.03,0-.06,0-.08-.16-1.96-1.59-3.17-3.71-3.17h-16.94c.28-3.35.71-7.07,1.33-11.3,0-.05.01-.1.01-.14,0-4.06-2.33-6.39-6.39-6.39h0Z"/>
        </g>
        <g>
          <path class="cls-13" d="M143.7,444.79h-.03c-2.45-.44-4.56-1.05-6.23-1.81-2.76-1.47-31.73-25.37-43.02-37.97-.38-.55-.74-1.02-1.08-1.42,4.62-1.57,8.41-3.04,11.24-4.37,2.15-.93,3.24-2.27,3.24-4,0-3.13-1.78-4.86-5-4.86-.32,0-.88.1-2.1.91-5.13,3.1-12.46,6.51-21.68,10.12-2.11.56-2.54,1.84-2.54,2.82,0,1.21.49,3.25,3.79,3.25.48,0,1.58-.15,5.44-1.41.25.7.67,1.26,1.2,1.64,1.65,1.46,3.56,3.68,5.67,6.57,5,7.52,31.3,31.72,35.18,38.94l.15.2c1.74,1.54,3.66,2.32,5.7,2.32,2.89,0,5.73-.9,8.41-2.65,2.94-1.76,4.37-3.54,4.37-5.43,0-1.8-1.03-2.83-2.7-2.83Z"/>
          <path class="cls-11" d="M102.83,390.35c3.22,0,5,1.73,5,4.86,0,1.73-1.09,3.07-3.24,4-2.84,1.33-6.63,2.81-11.24,4.37.34.41.7.88,1.08,1.42,11.29,12.61,40.25,36.5,43.02,37.97,1.67.75,3.79,1.37,6.23,1.81h.03c1.67,0,2.7,1.04,2.7,2.83,0,1.89-1.43,3.67-4.37,5.43-2.67,1.75-5.51,2.65-8.41,2.65-2.04,0-3.96-.78-5.7-2.32l-.15-.2c-3.88-7.22-30.18-31.42-35.18-38.94-2.11-2.89-4.02-5.11-5.67-6.57-.54-.38-.95-.94-1.2-1.64-3.85,1.26-4.96,1.41-5.44,1.41-3.3,0-3.79-2.04-3.79-3.25,0-.98.44-2.27,2.54-2.82,9.22-3.61,16.55-7.02,21.68-10.12,1.21-.81,1.78-.91,2.1-.91M102.83,389.35c-.72,0-1.54.33-2.65,1.07-5.01,3.03-12.23,6.4-21.44,10-2.81.77-3.23,2.69-3.23,3.77,0,1,.35,4.25,4.79,4.25.58,0,1.64-.15,4.91-1.19.29.48.66.88,1.1,1.2,1.57,1.4,3.42,3.54,5.48,6.37,2.34,3.51,9.14,10.49,16.34,17.89,8.23,8.45,16.74,17.18,18.76,20.94.03.05.06.1.09.14l.15.2s.08.09.13.14c1.92,1.71,4.06,2.57,6.36,2.57,3.09,0,6.11-.95,8.95-2.81,3.23-1.94,4.82-4,4.82-6.27s-1.43-3.81-3.64-3.83c-2.28-.41-4.31-1-5.88-1.7-2.55-1.41-31.33-25.04-42.67-37.7-.07-.1-.15-.21-.22-.31,4.06-1.41,7.42-2.74,10.02-3.96,3.15-1.36,3.82-3.42,3.82-4.91,0-3.67-2.24-5.86-6-5.86h0Z"/>
        </g>
        <g>
          <path class="cls-13" d="M75.63,389.64c5.62-.7,11.11-1.57,16.33-2.6,6.76-1.33,11.84-2.56,15.13-3.65,2.52-.91,3.81-2.4,3.81-4.41,0-4.9-2.94-5.93-5.39-5.93-.86,0-1.78.35-2.72,1.01-5.05,2.48-10.21,4.5-15.33,6-5.02,1.58-12.73,2.79-22.97,3.6-2.27.31-2.61,1.82-2.61,2.7,0,1.95.83,4.27,4.73,4.32-.02.29-.03.6-.03.95.27,5.26.4,10.11.4,14.45,0,6.83-.13,21.58-.4,33.27,0,5.71,1.45,8.61,4.32,8.61,3.22,0,4.86-2.9,4.86-8.62l-.53-33.26c0-4.31.17-9.17.53-14.49,0-.73-.04-1.37-.13-1.95Z"/>
          <path class="cls-11" d="M105.51,373.05c2.46,0,5.39,1.03,5.39,5.93,0,2.01-1.29,3.5-3.81,4.41-3.29,1.09-8.37,2.32-15.13,3.65-5.22,1.03-10.71,1.9-16.33,2.6.09.58.13,1.22.13,1.95-.36,5.32-.53,10.17-.53,14.49l.53,33.26c0,5.73-1.64,8.62-4.86,8.62-2.87,0-4.32-2.9-4.32-8.61.27-11.69.4-26.44.4-33.27,0-4.33-.13-9.19-.4-14.45,0-.35.01-.66.03-.95-3.9-.05-4.73-2.37-4.73-4.32,0-.88.34-2.4,2.61-2.7,10.24-.8,17.95-2.01,22.97-3.6,5.12-1.5,10.27-3.51,15.33-6,.94-.66,1.86-1.01,2.72-1.01M105.51,372.05c-1.04,0-2.13.39-3.23,1.15-4.97,2.44-10.04,4.42-15.1,5.9-4.98,1.57-12.63,2.77-22.76,3.56-.02,0-.04,0-.06,0-2.18.29-3.48,1.67-3.48,3.69,0,3.01,1.7,4.88,4.69,5.26v.02s0,.03,0,.05c.27,5.14.4,9.99.4,14.4,0,6.63-.13,21.32-.4,33.25,0,6.4,1.79,9.64,5.32,9.64,2.67,0,5.86-1.67,5.86-9.62l-.53-33.27c0-4.34.18-9.19.53-14.4,0-.02,0-.05,0-.07,0-.38-.01-.74-.03-1.08,5.31-.68,10.49-1.52,15.43-2.49,6.79-1.34,11.92-2.58,15.25-3.68,3.72-1.34,4.49-3.66,4.49-5.36,0-4.41-2.33-6.93-6.39-6.93h0Z"/>
        </g>
      </g>
      <g class="cls-4">
        <path class="cls-10" d="M111.45,148.94c-5.15-1.45-9.94-5.25-14.26-11.3-2.81-3.85-3.21-3.96-3.53-4.05-1.1-.31-1.96.25-2.31,1.49-.43,1.52.04,4.76,1.41,9.87,1.02,4.3,2.1,7.67,3.22,10.03,1.18,2.51,2.75,4.06,4.65,4.59,1.67.47,4.13-.29,7.52-2.33,3.36-2.03,5.23-3.82,5.7-5.49.21-.74.17-2.1-2.4-2.82Z"/>
        <path class="cls-10" d="M45.38,117.85c-.51-.14-1.41-.05-6.3,2.68-4.78,2.94-6.19,3.48-6.7,3.56-2.92.9-6.08,1.41-9.41,1.51-3.86.15-5.57.66-5.88,1.78-.52,1.86-.19,4.19.99,6.96,1.3,2.72,2.89,4.36,4.71,4.87,2.88.81,7.34-1.45,13.66-6.93,5.83-5.23,9.06-9.2,9.89-12.15.49-1.73-.62-2.19-.97-2.28Z"/>
        <path class="cls-10" d="M104.17,101.61c.71-2.52-.1-4.41-2.34-5.44-3.39-1.76-8.16-3.51-14.16-5.2l-10.18-2.87c-8.92-2.51-15.82-4.33-20.49-5.39-2.58-.63-4.64-.41-6.07.61-1.41.79-2.38,2.1-2.89,3.91-.56,2,.32,3.43,2.46,4.04,1.61.45,3.58.79,6.03,1.03l2.71.41c1.79.27,2.91.44,3.36.51,8.18,1.52,15.95,3.31,23.08,5.32.41.12.71.23.93.32-1.18.74-4.59,2.46-14.29,6.48-2.11.92-4.47,1.37-6.95,1.34-2.79-.26-3.78,1.11-4.12,2.3-.38,1.33.38,2.91,2.29,4.82,2.92,3.06,5.16,7.01,6.67,11.74,1.52,4.61,1.74,8.91.66,12.77-2.74,9.73-8,13.35-16.08,11.07-3.18-.9-6.34-2.62-9.39-5.1l-4.46-3.9-.25-.14c-.64-.18-2.19-.34-2.85,2-.4,1.41-.33,3.57.21,6.61,1.2,5.24,4.94,8.77,11.14,10.52s12.49,1.51,18.04-.89c5.78-2.47,9.66-7.04,11.51-13.59,1.37-4.84,1.08-10.75-.85-17.55-1.58-5.76-3.96-11.01-7.08-15.63,9.45-3.07,18.52-5.44,26.99-7.07,5.24-1.16,6.17-2.24,6.4-3.04Z"/>
      </g>
    </g>
  </g>
</svg>